<svg width="132" height="132" viewBox="0 0 132 132" fill="none" xmlns="http://www.w3.org/2000/svg">
<circle cx="66" cy="66" r="66" fill="#99CEFF"/>
<path fill-rule="evenodd" clip-rule="evenodd" d="M42.6665 45.5833C41.069 45.5833 39.7498 46.9025 39.7498 48.5V83.5C39.7498 85.0975 41.069 86.4167 42.6665 86.4167H89.3332C90.9307 86.4167 92.2498 85.0975 92.2498 83.5V48.5C92.2498 46.9025 90.9307 45.5833 89.3332 45.5833H42.6665ZM33.9165 48.5C33.9165 43.6808 37.8473 39.75 42.6665 39.75H89.3332C94.1523 39.75 98.0832 43.6808 98.0832 48.5V83.5C98.0832 88.3192 94.1523 92.25 89.3332 92.25H42.6665C37.8473 92.25 33.9165 88.3192 33.9165 83.5V48.5Z" fill="white"/>
<path fill-rule="evenodd" clip-rule="evenodd" d="M34.444 46.8273C35.3677 45.5077 37.1864 45.1867 38.506 46.1105L66.0001 65.3563L93.4942 46.1105C94.8138 45.1867 96.6324 45.5077 97.5562 46.8273C98.4799 48.147 98.159 49.9656 96.8394 50.8894L67.6727 71.306C66.6684 72.009 65.3318 72.009 64.3275 71.306L35.1608 50.8894C33.8412 49.9656 33.5202 48.147 34.444 46.8273Z" fill="white"/>
</svg>
