<svg width="45" height="45" viewBox="0 0 45 45" fill="none" xmlns="http://www.w3.org/2000/svg">
<path d="M22.5 45C34.9264 45 45 34.9264 45 22.5C45 10.0736 34.9264 0 22.5 0C10.0736 0 0 10.0736 0 22.5C0 34.9264 10.0736 45 22.5 45Z" fill="url(#paint0_linear_82_180)"/>
<path d="M30.8794 29.3811L31.8789 23.0305H25.6265V18.9113C25.6265 17.1734 26.4984 15.4786 29.2988 15.4786H32.1431V10.0719C32.1431 10.0719 29.5629 9.64286 27.0972 9.64286C21.9455 9.64286 18.5816 12.6851 18.5816 18.1903V23.0305H12.8574V29.3811H18.5816V44.734C19.7307 44.91 20.9063 45 22.104 45C23.3016 45 24.4774 44.91 25.6265 44.734V29.3811H30.8794Z" fill="white"/>
<defs>
<linearGradient id="paint0_linear_82_180" x1="22.5" y1="0" x2="22.5" y2="44.8666" gradientUnits="userSpaceOnUse">
<stop stop-color="#18ACFE"/>
<stop offset="1" stop-color="#0163E0"/>
</linearGradient>
</defs>
</svg>
