<svg width="88" height="89" viewBox="0 0 88 89" fill="none" xmlns="http://www.w3.org/2000/svg">
<path d="M43.9476 0.536987C50.031 0.536987 55.7473 1.69074 61.0965 3.99825C66.4458 6.30576 71.1132 9.45236 75.0989 13.4381C79.0846 17.4238 82.2312 22.0737 84.5387 27.388C86.8462 32.7023 88 38.4011 88 44.4845C88 50.568 86.8462 56.2843 84.5387 61.6335C82.2312 66.9828 79.0846 71.6502 75.0989 75.6359C71.1132 79.6216 66.4458 82.7682 61.0965 85.0757C55.7473 87.3832 50.031 88.537 43.9476 88.537C37.8641 88.537 32.1653 87.3832 26.851 85.0757C21.5368 82.7682 16.8868 79.6216 12.9011 75.6359C8.91538 71.6502 5.76877 66.9828 3.46126 61.6335C1.15375 56.2843 0 50.568 0 44.4845C0 38.4011 1.15375 32.7023 3.46126 27.388C5.76877 22.0737 8.91538 17.4238 12.9011 13.4381C16.8868 9.45236 21.5368 6.30576 26.851 3.99825C32.1653 1.69074 37.8641 0.536987 43.9476 0.536987ZM60.5197 19.7313H51.1847C49.3667 19.7313 47.6885 20.0459 46.1502 20.6752C44.6118 21.3046 43.2658 22.1437 42.112 23.1925C40.9583 24.2414 40.0667 25.4301 39.4374 26.7587C38.8081 28.0872 38.4934 29.4158 38.4934 30.7444V36.3034H30.2074V47.2116H38.4934V69.2378H49.5066V47.2116H57.6877V36.3034H49.5066V33.4714C49.5066 32.6323 49.8387 31.9681 50.503 31.4786C51.1673 30.9891 51.7441 30.7444 52.2336 30.7444H60.5197V19.7313Z" fill="#436FCE"/>
</svg>
