<svg width="139" height="139" viewBox="0 0 139 139" fill="none" xmlns="http://www.w3.org/2000/svg">
<circle cx="69.5" cy="69.5" r="69.5" fill="#99CEFF"/>
<path fill-rule="evenodd" clip-rule="evenodd" d="M41.921 82.3729C45.3082 78.9857 49.9023 77.0828 54.6925 77.0828H83.5911C88.3814 77.0828 92.9754 78.9857 96.3626 82.3729C99.7499 85.7601 101.653 90.3542 101.653 95.1444V102.369C101.653 104.364 100.035 105.981 98.0404 105.981C96.0454 105.981 94.4281 104.364 94.4281 102.369V95.1444C94.4281 92.2703 93.2864 89.5138 91.254 87.4815C89.2217 85.4492 86.4653 84.3074 83.5911 84.3074H54.6925C51.8184 84.3074 49.0619 85.4492 47.0296 87.4815C44.9973 89.5138 43.8555 92.2703 43.8555 95.1444V102.369C43.8555 104.364 42.2382 105.981 40.2432 105.981C38.2482 105.981 36.6309 104.364 36.6309 102.369V95.1444C36.6309 90.3542 38.5338 85.7601 41.921 82.3729Z" fill="white"/>
<path fill-rule="evenodd" clip-rule="evenodd" d="M69.1417 40.9595C63.1566 40.9595 58.3047 45.8114 58.3047 51.7965C58.3047 57.7816 63.1566 62.6335 69.1417 62.6335C75.1268 62.6335 79.9787 57.7816 79.9787 51.7965C79.9787 45.8114 75.1268 40.9595 69.1417 40.9595ZM51.0801 51.7965C51.0801 41.8213 59.1666 33.7349 69.1417 33.7349C79.1169 33.7349 87.2034 41.8213 87.2034 51.7965C87.2034 61.7717 79.1169 69.8581 69.1417 69.8581C59.1666 69.8581 51.0801 61.7717 51.0801 51.7965Z" fill="white"/>
</svg>
