<svg width="44" height="44" viewBox="0 0 44 44" fill="none" xmlns="http://www.w3.org/2000/svg">
<circle cx="22" cy="22" r="22" fill="#99CEFF"/>
<path fill-rule="evenodd" clip-rule="evenodd" d="M13.7497 23.8333C14.2559 23.8333 14.6663 24.2437 14.6663 24.7499V28.4166C14.6663 28.6597 14.7629 28.8929 14.9348 29.0648C15.1067 29.2367 15.3399 29.3333 15.583 29.3333H28.4163C28.6595 29.3333 28.8926 29.2367 29.0645 29.0648C29.2364 28.8929 29.333 28.6597 29.333 28.4166V24.7499C29.333 24.2437 29.7434 23.8333 30.2497 23.8333C30.7559 23.8333 31.1663 24.2437 31.1663 24.7499V28.4166C31.1663 29.1459 30.8766 29.8454 30.3609 30.3611C29.8452 30.8769 29.1457 31.1666 28.4163 31.1666H15.583C14.8537 31.1666 14.1542 30.8769 13.6385 30.3611C13.1227 29.8454 12.833 29.1459 12.833 28.4166V24.7499C12.833 24.2437 13.2434 23.8333 13.7497 23.8333Z" fill="white"/>
<path fill-rule="evenodd" clip-rule="evenodd" d="M16.7685 19.5185C17.1265 19.1605 17.7069 19.1605 18.0648 19.5185L22 23.4536L25.9352 19.5185C26.2931 19.1605 26.8735 19.1605 27.2315 19.5185C27.5895 19.8765 27.5895 20.4569 27.2315 20.8148L22.6482 25.3982C22.2902 25.7562 21.7098 25.7562 21.3518 25.3982L16.7685 20.8148C16.4105 20.4569 16.4105 19.8765 16.7685 19.5185Z" fill="white"/>
<path fill-rule="evenodd" clip-rule="evenodd" d="M21.9997 12.8333C22.5059 12.8333 22.9163 13.2437 22.9163 13.7499V24.7499C22.9163 25.2562 22.5059 25.6666 21.9997 25.6666C21.4934 25.6666 21.083 25.2562 21.083 24.7499V13.7499C21.083 13.2437 21.4934 12.8333 21.9997 12.8333Z" fill="white"/>
</svg>
