<svg width="62" height="62" viewBox="0 0 62 62" fill="none" xmlns="http://www.w3.org/2000/svg">
<circle cx="31" cy="31" r="31" fill="#99CEFF"/>
<path d="M41.375 28.0835C41.375 36.5418 30.5 43.7918 30.5 43.7918C30.5 43.7918 19.625 36.5418 19.625 28.0835C19.625 25.1993 20.7708 22.4332 22.8102 20.3937C24.8497 18.3543 27.6158 17.2085 30.5 17.2085C33.3842 17.2085 36.1503 18.3543 38.1898 20.3937C40.2292 22.4332 41.375 25.1993 41.375 28.0835Z" stroke="white" stroke-width="2" stroke-linecap="round" stroke-linejoin="round"/>
<path d="M30.5 31.7085C32.502 31.7085 34.125 30.0855 34.125 28.0835C34.125 26.0815 32.502 24.4585 30.5 24.4585C28.498 24.4585 26.875 26.0815 26.875 28.0835C26.875 30.0855 28.498 31.7085 30.5 31.7085Z" stroke="white" stroke-width="2" stroke-linecap="round" stroke-linejoin="round"/>
</svg>
