<svg width="70" height="70" viewBox="0 0 70 70" fill="none" xmlns="http://www.w3.org/2000/svg">
<path fill-rule="evenodd" clip-rule="evenodd" d="M42.1806 7.27209C44.4813 6.31879 46.9473 5.82812 49.4377 5.82812C51.9281 5.82812 54.3941 6.31879 56.6948 7.27209C58.9951 8.22522 61.0851 9.62214 62.8454 11.3831C64.6064 13.1434 66.0042 15.2344 66.9574 17.5347C67.9107 19.8354 68.4013 22.3014 68.4013 24.7918C68.4013 27.2822 67.9107 29.7482 66.9574 32.0489C66.0042 34.3494 64.6071 36.4395 62.8459 38.2C62.8458 38.2002 62.8461 38.1999 62.8459 38.2L37.0626 63.9833C35.9236 65.1224 34.0768 65.1224 32.9378 63.9833L7.15446 38.2C3.59837 34.6439 1.60059 29.8208 1.60059 24.7918C1.60059 19.7627 3.59837 14.9396 7.15446 11.3836C10.7105 7.82747 15.5336 5.82968 20.5627 5.82968C25.5917 5.82968 30.4148 7.82747 33.9709 11.3836L35.0002 12.4128L36.029 11.384C36.0288 11.3842 36.0291 11.3839 36.029 11.384C37.7894 9.62288 39.8801 8.22531 42.1806 7.27209ZM49.4377 11.6615C47.7136 11.6615 46.0063 12.0012 44.4135 12.6611C42.8207 13.3211 41.3736 14.2884 40.1547 15.5079L37.0626 18.6C35.9236 19.739 34.0768 19.739 32.9378 18.6L29.8461 15.5083C27.384 13.0462 24.0446 11.663 20.5627 11.663C17.0807 11.663 13.7414 13.0462 11.2792 15.5083C8.81712 17.9705 7.43392 21.3098 7.43392 24.7918C7.43392 28.2737 8.81712 31.6131 11.2792 34.0752L35.0002 57.7962L58.7211 34.0752C59.9405 32.8564 60.9084 31.4087 61.5683 29.8159C62.2283 28.2231 62.568 26.5159 62.568 24.7918C62.568 23.0677 62.2283 21.3604 61.5683 19.7676C60.9084 18.1748 59.941 16.7277 58.7216 15.5088C57.5028 14.2894 56.0546 13.3211 54.4618 12.6611C52.869 12.0012 51.1618 11.6615 49.4377 11.6615Z" fill="#E95362"/>
</svg>
