<svg width="30" height="30" viewBox="0 0 30 30" fill="none" xmlns="http://www.w3.org/2000/svg">
<path d="M21.25 2.49976H8.75C5.29822 2.49976 2.5 5.29798 2.5 8.74976V21.2498C2.5 24.7015 5.29822 27.4998 8.75 27.4998H21.25C24.7018 27.4998 27.5 24.7015 27.5 21.2498V8.74976C27.5 5.29798 24.7018 2.49976 21.25 2.49976Z" stroke="black" stroke-width="2" stroke-linecap="round" stroke-linejoin="round"/>
<path d="M20.0006 14.2121C20.1549 15.2525 19.9772 16.3149 19.4928 17.2484C19.0084 18.1819 18.242 18.9389 17.3026 19.4117C16.3632 19.8846 15.2987 20.0491 14.2603 19.8821C13.222 19.715 12.2628 19.2247 11.5192 18.4811C10.7755 17.7374 10.2853 16.7782 10.1182 15.7399C9.95111 14.7016 10.1157 13.637 10.5885 12.6976C11.0613 11.7582 11.8183 10.9918 12.7518 10.5074C13.6853 10.0231 14.7478 9.84538 15.7881 9.99964C16.8493 10.157 17.8317 10.6515 18.5902 11.41C19.3488 12.1686 19.8433 13.151 20.0006 14.2121Z" stroke="black" stroke-width="2" stroke-linecap="round" stroke-linejoin="round"/>
<path d="M21.875 8.12476H21.8875" stroke="black" stroke-width="2" stroke-linecap="round" stroke-linejoin="round"/>
</svg>
