<svg width="88" height="88" viewBox="0 0 88 88" fill="none" xmlns="http://www.w3.org/2000/svg">
<path d="M44 88C68.3005 88 88 68.3005 88 44C88 19.6995 68.3005 0 44 0C19.6995 0 0 19.6995 0 44C0 68.3005 19.6995 88 44 88Z" fill="url(#paint0_linear_56_460)"/>
<path d="M43.9973 54.6534C38.1221 54.6534 33.3433 49.8731 33.3433 43.9979C33.3433 38.1228 38.1221 33.3453 43.9973 33.3453C49.8728 33.3453 54.6531 38.1228 54.6531 43.9979C54.6531 49.8731 49.8728 54.6534 43.9973 54.6534ZM43.9973 36.213C39.7045 36.213 36.2109 39.7048 36.2109 43.9979C36.2109 48.2911 39.7045 51.7858 43.9973 51.7858C48.2918 51.7858 51.7855 48.2911 51.7855 43.9979C51.7855 39.7048 48.2918 36.213 43.9973 36.213Z" fill="white"/>
<path d="M56.183 33.5425C56.9149 33.5425 57.5082 32.9492 57.5082 32.2173C57.5082 31.4855 56.9149 30.8922 56.183 30.8922C55.4512 30.8922 54.8579 31.4855 54.8579 32.2173C54.8579 32.9492 55.4512 33.5425 56.183 33.5425Z" fill="white"/>
<path d="M53.1672 64.8312H34.8273C28.3961 64.8312 23.165 59.5998 23.165 53.17V34.8302C23.165 28.3978 28.3961 23.1667 34.8273 23.1667H53.1672C59.5984 23.1667 64.8295 28.3978 64.8295 34.8302V53.17C64.8295 59.5998 59.5984 64.8312 53.1672 64.8312ZM34.8273 26.0344C29.9785 26.0344 26.0327 29.9799 26.0327 34.8302V53.17C26.0327 58.0177 29.9785 61.9635 34.8273 61.9635H53.1672C58.016 61.9635 61.9618 58.0177 61.9618 53.17V34.8302C61.9618 29.9799 58.016 26.0344 53.1672 26.0344H34.8273Z" fill="white"/>
<defs>
<linearGradient id="paint0_linear_56_460" x1="6.61943" y1="17.8437" x2="74.5406" y2="76.843" gradientUnits="userSpaceOnUse">
<stop stop-color="#442CDA"/>
<stop offset="0.443496" stop-color="#D02ACC" stop-opacity="0.882213"/>
<stop offset="0.443596" stop-color="#D22ACC" stop-opacity="0.88"/>
<stop offset="1" stop-color="#F1F50E"/>
</linearGradient>
</defs>
</svg>
