<svg width="115" height="55" viewBox="0 0 115 55" fill="none" xmlns="http://www.w3.org/2000/svg">
<path fill-rule="evenodd" clip-rule="evenodd" d="M104.935 0H10.0621C4.50437 0 0 4.48522 0 10.016V35.0569C0 40.5886 4.50436 45.072 9.43314 45.072H43.0041C49.3291 45.072 53.5041 55 57.1855 55C60.9332 55 65.7333 45.072 71.3967 45.072H104.935C110.494 45.072 115 40.5886 115 35.0569V10.016C115 4.48522 110.494 0 104.935 0Z" fill="#F0355B"/>
<path d="M26.0826 14C26.9282 14 27.766 14.2574 28.5063 14.7435C30.8966 16.3133 31.7117 19.8175 30.3216 22.5546C29.3303 24.5084 25.1986 28.1679 21.6634 30.9418C21.6034 30.9898 21.5413 31 21.5 31C21.4596 31 21.3976 30.9898 21.3366 30.9418C17.8014 28.1679 13.6697 24.5084 12.6784 22.5546C11.2883 19.8175 12.1034 16.3133 14.4937 14.7435C15.234 14.2574 16.0718 14 16.9174 14C18.4059 14 19.5833 14.2237 20.738 15.4227L21.5 16.5002L22.262 15.4227C23.4925 14.145 24.5941 14 26.0826 14Z" fill="white"/>
<path d="M36.0371 28.1268V26.533L43.0684 15.408H44.2246V17.8768H43.4434L38.1309 26.283V26.408H47.5996V28.1268H36.0371ZM43.5684 31.408V27.6424V26.9002V15.408H45.4121V31.408H43.5684ZM50.1523 28.1268V26.533L57.1836 15.408H58.3398V17.8768H57.5586L52.2461 26.283V26.408H61.7148V28.1268H50.1523ZM57.6836 31.408V27.6424V26.9002V15.408H59.5273V31.408H57.6836Z" fill="white"/>
<path d="M75 14C72.2392 14 70 16.2379 70 19.001C70 21.7621 72.2392 24 75 24C77.7608 24 80 21.7621 80 19.001C80 16.2379 77.7608 14 75 14Z" fill="white"/>
<path d="M66.4187 31C66.1829 30.995 66.0077 30.8119 66.0067 30.5765L66 29.3863C66 26.9668 67.2533 25 69.5682 25H80.4318C82.7477 25 84 26.9668 84 29.3833V30.5734C84 30.8099 83.8171 31 83.5909 31H66.4187Z" fill="white"/>
<path d="M93.7983 15.408V31.408H91.8608V17.4393H91.7671L87.8608 20.033V18.0643L91.8608 15.408H93.7983ZM104.025 15.408V31.408H102.087V17.4393H101.994L98.0874 20.033V18.0643L102.087 15.408H104.025Z" fill="white"/>
</svg>
