<svg width="82" height="54" viewBox="0 0 82 54" fill="none" xmlns="http://www.w3.org/2000/svg">
<path fill-rule="evenodd" clip-rule="evenodd" d="M71.5943 0H10.4032C4.65728 0 0 4.40367 0 9.83389V34.4195C0 39.8507 4.65729 44.2525 9.7528 44.2525H26.0124C32.5515 44.2525 36.8678 54 40.6751 54C44.5497 54 49.5142 44.2525 55.3688 44.2525H71.5943C77.3417 44.2525 82 39.8507 82 34.4195V9.83389C82 4.40367 77.3417 0 71.5943 0Z" fill="#F0355B"/>
<path d="M23.8243 12C24.7132 12 25.5949 12.2574 26.3749 12.7435C28.8915 14.3133 29.7488 17.8175 28.2863 20.5546C27.2428 22.5084 22.8936 26.1689 19.172 28.9418C19.1085 28.9898 19.0429 29 19 29C18.9567 29 18.8919 28.9898 18.8275 28.9418C15.1063 26.1689 10.758 22.5084 9.71368 20.5546C8.25109 17.8175 9.10892 14.3133 11.6251 12.7435C12.4042 12.2574 13.2863 12 14.1756 12C15.743 12.001 16.9821 12.2237 18.1977 13.4217L18.9996 14.4992L19.8018 13.4217C21.0976 12.145 22.2566 12 23.8243 12Z" fill="white"/>
<path d="M35.6563 29V27.5938L40.9375 21.8125C41.5573 21.1354 42.0677 20.5469 42.4688 20.0469C42.8698 19.5417 43.1667 19.0677 43.3594 18.625C43.5573 18.1771 43.6563 17.7083 43.6563 17.2187C43.6563 16.6563 43.5208 16.1693 43.25 15.7578C42.9844 15.3464 42.6198 15.0286 42.1563 14.8047C41.6927 14.5807 41.1719 14.4687 40.5937 14.4687C39.9792 14.4687 39.4427 14.5964 38.9844 14.8516C38.5313 15.1016 38.1797 15.4531 37.9297 15.9062C37.6849 16.3594 37.5625 16.8906 37.5625 17.5H35.7188C35.7188 16.5625 35.9349 15.7396 36.3672 15.0312C36.7995 14.3229 37.388 13.7708 38.1328 13.375C38.8828 12.9792 39.724 12.7812 40.6562 12.7812C41.5938 12.7812 42.4245 12.9792 43.1484 13.375C43.8724 13.7708 44.4401 14.3047 44.8516 14.9766C45.263 15.6484 45.4687 16.3958 45.4687 17.2187C45.4687 17.8073 45.362 18.3828 45.1484 18.9453C44.9401 19.5026 44.5755 20.125 44.0547 20.8125C43.5391 21.4948 42.8229 22.3281 41.9062 23.3125L38.3125 27.1562V27.2812H45.75V29H35.6563ZM48.2578 25.7187V24.125L55.2891 13H56.4453V15.4688H55.6641L50.3516 23.875V24H59.8203V25.7187H48.2578ZM55.7891 29V25.2344V24.4922V13H57.6328V29H55.7891ZM67.748 29.2187C66.8314 29.2187 66.0059 29.0365 65.2715 28.6719C64.5371 28.3073 63.9486 27.8073 63.5059 27.1719C63.0632 26.5365 62.821 25.8125 62.7793 25H64.6543C64.7272 25.724 65.0553 26.3229 65.6387 26.7969C66.2272 27.2656 66.9303 27.5 67.748 27.5C68.4043 27.5 68.9876 27.3464 69.498 27.0391C70.0137 26.7318 70.4173 26.3099 70.709 25.7734C71.0059 25.2318 71.1543 24.6198 71.1543 23.9375C71.1543 23.2396 71.0007 22.6172 70.6934 22.0703C70.3913 21.5182 69.9746 21.0833 69.4434 20.7656C68.9121 20.4479 68.3053 20.2865 67.623 20.2812C67.1335 20.276 66.6309 20.3516 66.1152 20.5078C65.5996 20.6589 65.1751 20.8542 64.8418 21.0938L63.0293 20.875L63.998 13H72.3105V14.7187H65.623L65.0605 19.4375H65.1543C65.4824 19.1771 65.8939 18.9609 66.3887 18.7891C66.8835 18.6172 67.3991 18.5312 67.9355 18.5312C68.9147 18.5312 69.7871 18.7656 70.5527 19.2344C71.3236 19.6979 71.9277 20.3333 72.3652 21.1406C72.8079 21.9479 73.0293 22.8698 73.0293 23.9062C73.0293 24.9271 72.8001 25.8385 72.3418 26.6406C71.8887 27.4375 71.2637 28.0677 70.4668 28.5312C69.6699 28.9896 68.7637 29.2187 67.748 29.2187Z" fill="white"/>
</svg>
