<svg width="98" height="98" viewBox="0 0 98 98" fill="none" xmlns="http://www.w3.org/2000/svg">
<path d="M91.4504 73.4016C95.5946 66.2106 98 57.8931 98 48.9982C98 21.9371 76.0632 -0.000489688 49.0005 -0.000489688C21.9378 -0.000489688 0 21.9371 0 48.9982C0 76.0617 21.9378 97.9995 49.0005 97.9995C58.0609 97.9995 66.5157 95.4964 73.7969 91.2111L95.2335 96.0934L91.4504 73.4016Z" fill="#99CEFF"/>
<path fill-rule="evenodd" clip-rule="evenodd" d="M69.3135 30.6863H28.6849C24.8702 30.6863 21.7773 33.7539 21.7773 37.5366V54.6628C21.7773 58.4461 24.8702 61.5124 28.2531 61.5124H39.0492C43.3899 61.5124 46.256 68.3025 48.784 68.3025C51.3561 68.3025 54.6521 61.5124 58.5406 61.5124H69.3135C73.1289 61.5124 76.2218 58.4461 76.2218 54.6628V37.5366C76.2218 33.7539 73.1289 30.6863 69.3135 30.6863Z" fill="#F0355B"/>
<path d="M53.536 37.6156C54.3724 37.6156 55.2019 37.8701 55.9347 38.3518C58.3014 39.9057 59.1083 43.3741 57.7323 46.0834C56.751 48.0181 52.6607 51.6414 49.1615 54.3866C49.1012 54.4341 49.0404 54.4438 48.9996 54.4438C48.9588 54.4438 48.8973 54.4341 48.8371 54.3866C45.3379 51.6414 41.2488 48.0181 40.2669 46.0834C38.8915 43.3741 39.6978 39.9057 42.0645 38.3518C42.7967 37.8701 43.6268 37.6156 44.4632 37.6156C45.9364 37.6156 47.1022 37.8369 48.2454 39.023L48.999 40.0899L49.7532 39.023C50.9723 37.7588 52.0621 37.6156 53.536 37.6156Z" fill="white"/>
</svg>
