<svg width="99" height="99" viewBox="0 0 99 99" fill="none" xmlns="http://www.w3.org/2000/svg">
<path d="M92.3835 74.1511C96.57 66.8867 99 58.4843 99 49.4987C99 22.1614 76.8394 0 49.5005 0C22.1616 0 0 22.1614 0 49.4987C0 76.8383 22.1616 99 49.5005 99C58.6534 99 67.1945 96.4713 74.55 92.1423L96.2053 97.0744L92.3835 74.1511Z" fill="#99CEFF"/>
<path fill-rule="evenodd" clip-rule="evenodd" d="M70.0213 31H28.9781C25.1244 31 22 34.0989 22 37.9201V55.2211C22 59.0431 25.1244 62.1406 28.5419 62.1406H39.4481C43.8331 62.1406 46.7285 69 49.2822 69C51.8806 69 55.2102 62.1406 59.1384 62.1406H70.0213C73.8755 62.1406 77 59.0431 77 55.2211V37.9201C77 34.0989 73.8755 31 70.0213 31Z" fill="#F0355B"/>
<path d="M54.0825 38C54.9275 38 55.7654 38.2571 56.5057 38.7438C58.8966 40.3135 59.7117 43.8173 58.3217 46.5543C57.3303 48.5087 53.1983 52.169 49.6634 54.9421C49.6025 54.9901 49.541 55 49.4998 55C49.4586 55 49.3965 54.9901 49.3357 54.9421C45.8008 52.169 41.67 48.5087 40.678 46.5543C39.2887 43.8173 40.1032 40.3135 42.494 38.7438C43.2337 38.2571 44.0723 38 44.9172 38C46.4054 38 47.5831 38.2236 48.738 39.4218L49.4992 40.4996L50.2611 39.4218C51.4927 38.1447 52.5937 38 54.0825 38Z" fill="white"/>
</svg>
