<svg width="488" height="363" viewBox="0 0 488 363" fill="none" xmlns="http://www.w3.org/2000/svg">
<circle cx="262.5" cy="181.5" r="181.5" fill="#1877F2"/>
<path d="M298.69 193.96C300.89 193.08 302.723 192.64 304.19 192.64C306.537 192.64 308.297 193.52 309.47 195.28C310.643 197.04 311.23 199.313 311.23 202.1C311.23 206.5 310.13 210.24 307.93 213.32C305.877 216.4 302.283 219.187 297.15 221.68C288.497 225.787 277.277 229.087 263.49 231.58C249.703 233.927 236.137 235.1 222.79 235.1C204.31 235.1 188.837 233.047 176.37 228.94C163.903 224.687 154.59 218.893 148.43 211.56C142.417 204.227 139.41 195.94 139.41 186.7C139.41 174.087 143.443 163.38 151.51 154.58C159.723 145.633 171.75 139.18 187.59 135.22C178.937 132.727 172.263 128.327 167.57 122.02C163.023 115.713 160.75 108.673 160.75 100.9C160.75 90.34 164.05 81.0267 170.65 72.96C177.397 64.7467 186.417 58.44 197.71 54.04C209.003 49.64 221.397 47.44 234.89 47.44C253.077 47.44 266.717 51.4 275.81 59.32C284.903 67.0933 289.45 77.2133 289.45 89.68C289.45 98.3333 287.837 105.373 284.61 110.8C281.53 116.08 277.057 118.72 271.19 118.72C267.083 118.72 263.857 117.84 261.51 116.08C259.163 114.173 257.99 111.387 257.99 107.72C257.99 105.227 258.357 102.513 259.09 99.58C259.823 94.74 260.19 91.44 260.19 89.68C260.19 84.4 258.21 80.1467 254.25 76.92C250.29 73.5467 243.69 71.86 234.45 71.86C221.983 71.86 212.01 74.5 204.53 79.78C197.05 85.06 193.31 92.1733 193.31 101.12C193.31 108.013 196.097 113.733 201.67 118.28C207.39 122.68 216.63 125.1 229.39 125.54C232.617 125.687 234.89 126.42 236.21 127.74C237.53 129.06 238.19 131.26 238.19 134.34C238.19 144.02 233.79 148.933 224.99 149.08C212.817 149.373 202.697 151.06 194.63 154.14C186.71 157.22 180.917 161.18 177.25 166.02C173.73 170.713 171.97 175.773 171.97 181.2C171.97 190.293 176.223 197.187 184.73 201.88C193.237 206.427 206.73 208.7 225.21 208.7C237.383 208.7 250.217 207.307 263.71 204.52C277.35 201.587 289.01 198.067 298.69 193.96Z" fill="white"/>
<path d="M370.69 263.96C372.89 263.08 374.723 262.64 376.19 262.64C378.537 262.64 380.297 263.52 381.47 265.28C382.643 267.04 383.23 269.313 383.23 272.1C383.23 276.5 382.13 280.24 379.93 283.32C377.877 286.4 374.283 289.187 369.15 291.68C360.497 295.787 349.277 299.087 335.49 301.58C321.703 303.927 308.137 305.1 294.79 305.1C276.31 305.1 260.837 303.047 248.37 298.94C235.903 294.687 226.59 288.893 220.43 281.56C214.417 274.227 211.41 265.94 211.41 256.7C211.41 244.087 215.443 233.38 223.51 224.58C231.723 215.633 243.75 209.18 259.59 205.22C250.937 202.727 244.263 198.327 239.57 192.02C235.023 185.713 232.75 178.673 232.75 170.9C232.75 160.34 236.05 151.027 242.65 142.96C249.397 134.747 258.417 128.44 269.71 124.04C281.003 119.64 293.397 117.44 306.89 117.44C325.077 117.44 338.717 121.4 347.81 129.32C356.903 137.093 361.45 147.213 361.45 159.68C361.45 168.333 359.837 175.373 356.61 180.8C353.53 186.08 349.057 188.72 343.19 188.72C339.083 188.72 335.857 187.84 333.51 186.08C331.163 184.173 329.99 181.387 329.99 177.72C329.99 175.227 330.357 172.513 331.09 169.58C331.823 164.74 332.19 161.44 332.19 159.68C332.19 154.4 330.21 150.147 326.25 146.92C322.29 143.547 315.69 141.86 306.45 141.86C293.983 141.86 284.01 144.5 276.53 149.78C269.05 155.06 265.31 162.173 265.31 171.12C265.31 178.013 268.097 183.733 273.67 188.28C279.39 192.68 288.63 195.1 301.39 195.54C304.617 195.687 306.89 196.42 308.21 197.74C309.53 199.06 310.19 201.26 310.19 204.34C310.19 214.02 305.79 218.933 296.99 219.08C284.817 219.373 274.697 221.06 266.63 224.14C258.71 227.22 252.917 231.18 249.25 236.02C245.73 240.713 243.97 245.773 243.97 251.2C243.97 260.293 248.223 267.187 256.73 271.88C265.237 276.427 278.73 278.7 297.21 278.7C309.383 278.7 322.217 277.307 335.71 274.52C349.35 271.587 361.01 268.067 370.69 263.96Z" fill="white"/>
</svg>
