<svg width="70" height="70" viewBox="0 0 70 70" fill="none" xmlns="http://www.w3.org/2000/svg">
<path fill-rule="evenodd" clip-rule="evenodd" d="M11.6665 11.6666C10.893 11.6666 10.1511 11.9739 9.60411 12.5209C9.05713 13.0678 8.74984 13.8097 8.74984 14.5833V32.0833C8.74984 39.0452 11.5155 45.722 16.4383 50.6448C18.8758 53.0823 21.7696 55.0159 24.9544 56.3351C28.1392 57.6543 31.5526 58.3332 34.9998 58.3332C41.9618 58.3332 48.6386 55.5676 53.5614 50.6448C58.4842 45.722 61.2498 39.0452 61.2498 32.0833V14.5833C61.2498 13.8097 60.9425 13.0678 60.3956 12.5209C59.8486 11.9739 59.1067 11.6666 58.3332 11.6666H11.6665ZM5.47932 8.39607C7.12026 6.75512 9.34586 5.83325 11.6665 5.83325H58.3332C60.6538 5.83325 62.8794 6.75512 64.5204 8.39607C66.1613 10.037 67.0832 12.2626 67.0832 14.5833V32.0833C67.0832 40.5923 63.703 48.7528 57.6862 54.7696C51.6694 60.7864 43.5089 64.1666 34.9998 64.1666C30.7866 64.1666 26.6146 63.3367 22.7221 61.7244C18.8295 60.112 15.2927 57.7488 12.3135 54.7696C6.2967 48.7528 2.9165 40.5923 2.9165 32.0833V14.5833C2.9165 12.2626 3.83838 10.037 5.47932 8.39607Z" fill="#7FBA63"/>
<path fill-rule="evenodd" clip-rule="evenodd" d="M21.2708 27.1043C22.4098 25.9652 24.2565 25.9652 25.3956 27.1043L34.9998 36.7085L44.6041 27.1043C45.7431 25.9652 47.5899 25.9652 48.7289 27.1043C49.8679 28.2433 49.8679 30.09 48.7289 31.2291L37.0622 42.8957C35.9232 44.0348 34.0765 44.0348 32.9374 42.8957L21.2708 31.2291C20.1317 30.09 20.1317 28.2433 21.2708 27.1043Z" fill="#7FBA63"/>
</svg>
