<svg width="70" height="70" viewBox="0 0 70 70" fill="none" xmlns="http://www.w3.org/2000/svg">
<path fill-rule="evenodd" clip-rule="evenodd" d="M34.9998 5.83333C20.5024 5.83333 8.74984 17.5859 8.74984 32.0833C8.74984 46.5808 20.5024 58.3333 34.9998 58.3333C49.4973 58.3333 61.2498 46.5808 61.2498 32.0833C61.2498 17.5859 49.4973 5.83333 34.9998 5.83333ZM2.9165 32.0833C2.9165 14.3642 17.2807 0 34.9998 0C52.719 0 67.0832 14.3642 67.0832 32.0833C67.0832 49.8025 52.719 64.1667 34.9998 64.1667C17.2807 64.1667 2.9165 49.8025 2.9165 32.0833Z" fill="#F4C15E"/>
<path fill-rule="evenodd" clip-rule="evenodd" d="M25.6575 36.1544C24.6887 34.8763 22.8679 34.6198 21.5833 35.5833C20.2947 36.5498 20.0335 38.3779 21 39.6666L23.3333 37.9166C21 39.6666 21.0007 39.6675 21.0014 39.6685L21.003 39.6705L21.0063 39.675L21.0143 39.6855L21.0353 39.713L21.0975 39.7925C21.1477 39.856 21.2159 39.9403 21.3015 40.0423C21.4725 40.2461 21.7146 40.5221 22.0251 40.8461C22.6436 41.4916 23.5475 42.3417 24.7168 43.1921C27.0441 44.8847 30.5505 46.6666 35 46.6666C39.4495 46.6666 42.9559 44.8847 45.2832 43.1921C46.4525 42.3417 47.3564 41.4916 47.975 40.8461C48.2854 40.5221 48.5275 40.2461 48.6985 40.0423C48.7842 39.9403 48.8523 39.856 48.9026 39.7925L48.9647 39.713L48.9857 39.6855L48.9937 39.675L48.9971 39.6705L48.9986 39.6685C48.9993 39.6675 49 39.6666 46.6667 37.9166L49 39.6666C49.9665 38.3779 49.7053 36.5498 48.4167 35.5833C47.1321 34.6198 45.3114 34.8763 44.3425 36.1544L44.329 36.1717C44.3116 36.1937 44.2786 36.2347 44.2304 36.2922C44.1337 36.4074 43.977 36.5871 43.7634 36.81C43.3337 37.2583 42.6881 37.8665 41.8522 38.4744C40.1691 39.6985 37.8422 40.8333 35 40.8333C32.1578 40.8333 29.8309 39.6985 28.1478 38.4744C27.3119 37.8665 26.6663 37.2583 26.2367 36.81C26.0231 36.5871 25.8664 36.4074 25.7697 36.2922C25.7214 36.2347 25.6884 36.1937 25.6711 36.1717L25.6575 36.1544Z" fill="#F4C15E"/>
<path fill-rule="evenodd" clip-rule="evenodd" d="M23.3335 23.3332C23.3335 21.7223 24.6393 20.4165 26.2502 20.4165H26.2793C27.8902 20.4165 29.196 21.7223 29.196 23.3332C29.196 24.944 27.8902 26.2498 26.2793 26.2498H26.2502C24.6393 26.2498 23.3335 24.944 23.3335 23.3332Z" fill="#F4C15E"/>
<path fill-rule="evenodd" clip-rule="evenodd" d="M40.8335 23.3332C40.8335 21.7223 42.1393 20.4165 43.7502 20.4165H43.7793C45.3902 20.4165 46.696 21.7223 46.696 23.3332C46.696 24.944 45.3902 26.2498 43.7793 26.2498H43.7502C42.1393 26.2498 40.8335 24.944 40.8335 23.3332Z" fill="#F4C15E"/>
</svg>
