<svg width="35" height="35" viewBox="0 0 35 35" fill="none" xmlns="http://www.w3.org/2000/svg">
<path d="M24.6545 10.4756C24.6615 10.4756 24.6708 10.4756 24.6801 10.4756C24.923 10.4756 25.1484 10.5511 25.3332 10.6813L25.3297 10.679C25.4645 10.7963 25.5551 10.9613 25.5772 11.1472V11.1507C25.6004 11.2925 25.6132 11.4552 25.6132 11.6213C25.6132 11.6969 25.6109 11.7712 25.6051 11.8456V11.8352C25.3436 14.588 24.2095 21.2638 23.6331 24.3455C23.3891 25.6504 22.9092 26.0873 22.4444 26.1291C21.4346 26.2233 20.6677 25.4622 19.6892 24.8207C18.1577 23.8156 17.292 23.1904 15.8058 22.2108C14.0872 21.0802 15.2015 20.4562 16.1799 19.4406C16.4368 19.1733 20.8884 15.1237 20.9756 14.7565C20.9802 14.7344 20.9826 14.71 20.9826 14.6844C20.9826 14.5938 20.9489 14.5113 20.8943 14.4485C20.8338 14.409 20.7583 14.387 20.6793 14.387C20.627 14.387 20.577 14.3974 20.5305 14.4148L20.5329 14.4137C20.3795 14.4485 17.933 16.0653 13.1936 19.2639C12.6765 19.6718 12.0234 19.9298 11.3123 19.96H11.3053C10.2978 19.838 9.3833 19.6137 8.51527 19.2942L8.60126 19.322C7.51129 18.9665 6.64558 18.7794 6.71995 18.1775C6.75946 17.8645 7.19096 17.5442 8.01444 17.2165C13.087 15.0063 16.4697 13.5495 18.1624 12.8461C20.0297 11.8549 22.1946 11.0392 24.471 10.5105L24.6534 10.4744L24.6545 10.4756ZM17.4593 0C7.81225 0.0232404 0 7.84943 0 17.5C0 27.1645 7.83433 35 17.5 35C27.1657 35 35 27.1657 35 17.5C35 7.84943 27.1878 0.0232404 17.543 0H17.5407C17.5136 0 17.4864 0 17.4593 0Z" fill="#1877F2"/>
</svg>
