<svg width="70" height="70" viewBox="0 0 70 70" fill="none" xmlns="http://www.w3.org/2000/svg">
<g clip-path="url(#clip0_3_14777)">
<path fill-rule="evenodd" clip-rule="evenodd" d="M69.1457 15.4375C70.2848 16.5766 70.2848 18.4233 69.1457 19.5623L41.4374 47.2706C40.2984 48.4097 38.4516 48.4097 37.3126 47.2706L24.7917 34.7497L4.97906 54.5623C3.84003 55.7013 1.9933 55.7013 0.854272 54.5623C-0.284757 53.4233 -0.284757 51.5765 0.854272 50.4375L22.7293 28.5625C23.8683 27.4235 25.715 27.4235 26.8541 28.5625L39.375 41.0835L65.0209 15.4375C66.16 14.2985 68.0067 14.2985 69.1457 15.4375Z" fill="#5876B8"/>
<path fill-rule="evenodd" clip-rule="evenodd" d="M46.6665 17.4999C46.6665 15.8891 47.9723 14.5833 49.5832 14.5833H67.0832C68.694 14.5833 69.9998 15.8891 69.9998 17.4999V34.9999C69.9998 36.6108 68.694 37.9166 67.0832 37.9166C65.4723 37.9166 64.1665 36.6108 64.1665 34.9999V20.4166H49.5832C47.9723 20.4166 46.6665 19.1107 46.6665 17.4999Z" fill="#5876B8"/>
</g>
<defs>
<clipPath id="clip0_3_14777">
<rect width="70" height="70" fill="white"/>
</clipPath>
</defs>
</svg>
