<svg width="45" height="45" viewBox="0 0 45 45" fill="none" xmlns="http://www.w3.org/2000/svg">
<path fill-rule="evenodd" clip-rule="evenodd" d="M22.4935 0C10.0896 0 0 10.0924 0 22.4998C0 27.4204 1.58685 31.9838 4.28438 35.6878L1.48087 44.0473L10.1292 41.2833C13.6862 43.6378 17.931 45 22.5065 45C34.9104 45 45 34.9072 45 22.5002C45 10.0928 34.9104 0.000371933 22.5065 0.000371933L22.4935 0ZM16.212 11.4289C15.7758 10.384 15.4451 10.3444 14.7842 10.3176C14.5591 10.3045 14.3083 10.2914 14.0303 10.2914C13.1704 10.2914 12.2714 10.5427 11.7291 11.0982C11.0682 11.7727 9.42827 13.3466 9.42827 16.5742C9.42827 19.8019 11.7821 22.9235 12.0993 23.3603C12.43 23.7963 16.6882 30.5159 23.2999 33.2545C28.4703 35.3973 30.0046 35.1987 31.1813 34.9475C32.9003 34.5772 35.056 33.3068 35.5982 31.7729C36.1405 30.2382 36.1405 28.9286 35.9815 28.6509C35.8229 28.3731 35.3862 28.2148 34.7253 27.8837C34.0643 27.5529 30.8507 25.9656 30.2423 25.754C29.6471 25.5292 29.0787 25.6087 28.6293 26.2437C27.9945 27.13 27.3731 28.0297 26.8704 28.5717C26.4737 28.9951 25.8254 29.0481 25.2835 28.8229C24.5562 28.5191 22.52 27.8042 20.0072 25.5688C18.0632 23.8363 16.7409 21.6804 16.3576 21.0323C15.974 20.3712 16.318 19.987 16.6218 19.6302C16.9525 19.2199 17.2697 18.9291 17.6004 18.5453C17.931 18.1619 18.1162 17.9633 18.3278 17.5135C18.5528 17.0771 18.3938 16.6273 18.2352 16.2965C18.0766 15.9657 16.7543 12.7381 16.212 11.4289Z" fill="#67C15E"/>
</svg>
