<svg width="611" height="171" viewBox="0 0 611 171" fill="none" xmlns="http://www.w3.org/2000/svg">
<path fill-rule="evenodd" clip-rule="evenodd" d="M190.165 10.2763C174.39 15.6536 157.089 21.5511 141.042 23.2595C123.772 24.982 107.961 21.8318 94.3706 19.1239C80.6506 16.3902 69.1934 14.1074 60.7821 17.7439C48.8747 23.04 42.9807 40.2155 35.945 60.7181C33.0439 69.172 29.9488 78.1916 26.1579 87.1772C22.505 95.8358 18.2132 104.473 14.1761 112.597C3.86289 133.352 -4.7878 150.76 3.12333 156.636C9.30861 161.366 26.0356 158.875 44.4824 156.129C58.379 154.059 73.2515 151.845 85.3284 152.462C100.924 153.33 111.826 158.899 120.967 163.57C128.205 167.267 134.339 170.401 140.824 170.189C155.359 169.714 171.413 152.425 188.892 133.6L189.4 133.053C199.679 121.949 210.371 110.355 219.768 97.2015C219.994 97.7291 220.246 98.2433 220.525 98.7441C222.019 101.347 224.024 103.395 226.541 104.888C229.059 106.381 231.875 107.128 234.989 107.128C238.104 107.128 240.899 106.381 243.373 104.888C245.891 103.395 247.875 101.347 249.325 98.7441C250.819 96.1414 251.565 93.1761 251.565 89.8481C251.565 86.5201 250.819 83.5548 249.325 80.9521C247.875 78.3494 245.891 76.3014 243.373 74.8081C240.899 73.3148 238.104 72.5681 234.989 72.5681C234.811 72.5681 234.634 72.5705 234.458 72.5754C235.371 70.666 236.249 68.7228 237.087 66.7437C248.638 39.8195 252.937 6.18749 234.752 1.06144C224.917 -1.56946 208.581 3.99907 190.165 10.2763ZM231.88 77.7054C232.767 76.0224 233.628 74.3129 234.458 72.5754C231.554 72.6558 228.915 73.4001 226.541 74.8081C224.024 76.3014 222.019 78.3494 220.525 80.9521C219.075 83.5548 218.349 86.5201 218.349 89.8481C218.349 92.5358 218.822 94.9869 219.768 97.2015C221.062 95.3905 222.331 93.55 223.572 91.6772C223.768 93.3747 224.246 94.9197 225.005 96.3121C226.029 98.1894 227.395 99.6828 229.101 100.792C230.851 101.859 232.813 102.392 234.989 102.392C237.165 102.392 239.107 101.859 240.813 100.792C242.563 99.6828 243.928 98.1894 244.909 96.3121C245.933 94.4348 246.445 92.2801 246.445 89.8481C246.445 87.3734 245.933 85.1974 244.909 83.3201C243.928 81.4428 242.563 79.9708 240.813 78.9041C239.107 77.8374 237.165 77.3041 234.989 77.3041C233.899 77.3041 232.863 77.4379 231.88 77.7054ZM231.88 77.7054C229.316 82.5713 226.526 87.216 223.572 91.6772C223.503 91.086 223.469 90.4763 223.469 89.8481C223.469 87.3734 223.981 85.1974 225.005 83.3201C226.029 81.4428 227.395 79.9708 229.101 78.9041C229.974 78.3717 230.901 77.9721 231.88 77.7054ZM121.971 62.2001C121.417 61.7308 120.798 61.4961 120.115 61.4961C119.561 61.4961 119.049 61.6454 118.579 61.9441C118.11 62.2428 117.79 62.6481 117.619 63.1601L106.126 97.2068L96.3712 72.6961C96.2005 72.1841 95.8805 71.7788 95.4112 71.4801C94.9845 71.1814 94.5152 71.0321 94.0032 71.0321C93.4485 71.0321 92.9578 71.1814 92.5312 71.4801C92.1045 71.7788 91.7845 72.1841 91.5712 72.6961L81.6268 97.2826L70.0672 63.1601C69.8965 62.6481 69.5765 62.2428 69.1072 61.9441C68.6378 61.6454 68.1472 61.4961 67.6352 61.4961C66.9952 61.4961 66.3552 61.7521 65.7152 62.2641C65.1179 62.7334 64.8192 63.3948 64.8192 64.2481C64.8192 64.5041 64.8618 64.8028 64.9472 65.1441L78.5792 104.824C78.7498 105.336 79.0485 105.741 79.4752 106.04C79.9445 106.296 80.4138 106.445 80.8832 106.488C81.3952 106.488 81.8858 106.36 82.3552 106.104C82.8245 105.805 83.1872 105.379 83.4432 104.824L93.8507 79.683L104.243 104.824C104.499 105.379 104.862 105.805 105.331 106.104C105.801 106.36 106.291 106.488 106.803 106.488C107.273 106.445 107.721 106.296 108.147 106.04C108.617 105.741 108.937 105.336 109.107 104.824L122.739 65.1441C122.825 64.8028 122.867 64.4828 122.867 64.1841C122.867 63.3308 122.569 62.6694 121.971 62.2001ZM151.922 74.7441C150.301 73.5068 148.082 72.8881 145.266 72.8881C143.773 72.8881 142.344 73.1654 140.978 73.7201C139.613 74.2321 138.376 74.9361 137.266 75.8321C136.157 76.7281 135.24 77.7521 134.514 78.9041C134.471 78.9708 134.428 79.0374 134.386 79.1041V61.6881C134.386 60.9628 134.152 60.3654 133.682 59.8961C133.213 59.3841 132.594 59.1281 131.826 59.1281C131.101 59.1281 130.482 59.3841 129.97 59.8961C129.501 60.3654 129.266 60.9628 129.266 61.6881V103.864C129.266 104.589 129.501 105.208 129.97 105.72C130.482 106.232 131.101 106.488 131.826 106.488C132.552 106.488 133.149 106.232 133.618 105.72C134.13 105.208 134.386 104.589 134.386 103.864V86.3281C134.386 84.7068 134.813 83.2561 135.666 81.9761C136.52 80.6534 137.672 79.6081 139.122 78.8401C140.573 78.0294 142.173 77.6241 143.922 77.6241C145.8 77.6241 147.272 78.0294 148.338 78.8401C149.448 79.6081 150.237 80.6534 150.706 81.9761C151.176 83.2561 151.41 84.7068 151.41 86.3281V103.864C151.41 104.589 151.645 105.208 152.114 105.72C152.626 106.232 153.245 106.488 153.97 106.488C154.696 106.488 155.293 106.232 155.762 105.72C156.274 105.208 156.53 104.589 156.53 103.864V86.3281C156.53 83.8534 156.168 81.6134 155.442 79.6081C154.76 77.5601 153.586 75.9388 151.922 74.7441ZM192.264 73.6561C191.794 73.1441 191.197 72.8881 190.472 72.8881C189.704 72.8881 189.085 73.1441 188.616 73.6561C188.146 74.1254 187.912 74.7228 187.912 75.4481V93.6241C187.912 95.2454 187.485 96.7388 186.632 98.1041C185.821 99.4268 184.712 100.472 183.304 101.24C181.938 102.008 180.402 102.392 178.696 102.392C176.008 102.392 174.024 101.667 172.744 100.216C171.464 98.7228 170.824 96.5254 170.824 93.6241V75.4481C170.824 74.7228 170.589 74.1254 170.12 73.6561C169.65 73.1441 169.032 72.8881 168.264 72.8881C167.538 72.8881 166.92 73.1441 166.408 73.6561C165.938 74.1254 165.704 74.7228 165.704 75.4481V94.7761C165.704 97.2081 166.13 99.3628 166.984 101.24C167.88 103.075 169.16 104.525 170.824 105.592C172.53 106.616 174.6 107.128 177.032 107.128C178.824 107.128 180.466 106.851 181.96 106.296C183.453 105.741 184.776 104.973 185.928 103.992C186.692 103.341 187.354 102.614 187.912 101.812V103.48C187.912 105.912 187.485 107.939 186.632 109.56C185.778 111.224 184.562 112.483 182.984 113.336C181.405 114.189 179.506 114.616 177.288 114.616C175.666 114.616 174.194 114.339 172.872 113.784C171.592 113.272 170.61 112.867 169.928 112.568C169.288 112.269 168.669 112.269 168.072 112.568C167.517 112.867 167.09 113.4 166.792 114.168C166.578 114.808 166.621 115.405 166.92 115.96C167.261 116.557 167.837 117.048 168.648 117.432C169.629 117.987 170.888 118.435 172.424 118.776C173.96 119.117 175.56 119.288 177.224 119.288C180.21 119.288 182.877 118.712 185.224 117.56C187.613 116.408 189.512 114.637 190.92 112.248C192.328 109.901 193.032 106.936 193.032 103.352V75.4481C193.032 74.7228 192.776 74.1254 192.264 73.6561ZM285.89 74.1681C285.421 73.6561 284.802 73.4001 284.034 73.4001C283.309 73.4001 282.69 73.6561 282.178 74.1681C281.709 74.6374 281.474 75.2348 281.474 75.9601V93.4321C281.474 96.3334 280.728 98.5308 279.234 100.024C277.784 101.517 275.672 102.264 272.898 102.264C270.21 102.264 268.12 101.517 266.626 100.024C265.133 98.5308 264.386 96.3334 264.386 93.4321V75.9601C264.386 75.2348 264.152 74.6374 263.682 74.1681C263.213 73.6561 262.594 73.4001 261.826 73.4001C261.101 73.4001 260.482 73.6561 259.97 74.1681C259.501 74.6374 259.266 75.2348 259.266 75.9601V93.4321C259.266 97.7414 260.461 101.091 262.85 103.48C265.282 105.827 268.632 107 272.898 107C277.208 107 280.557 105.827 282.946 103.48C285.378 101.091 286.594 97.7414 286.594 93.4321V75.9601C286.594 75.2348 286.36 74.6374 285.89 74.1681ZM296.783 105.72C297.295 106.232 297.913 106.488 298.639 106.488C299.364 106.488 299.961 106.232 300.431 105.72C300.943 105.208 301.199 104.589 301.199 103.864V88.3121C301.199 86.7761 301.455 85.3468 301.967 84.0241C302.521 82.6588 303.225 81.4428 304.079 80.3761C304.975 79.3094 305.935 78.4988 306.959 77.9441C308.025 77.3468 309.092 77.0481 310.159 77.0481C310.927 77.0481 311.567 77.1761 312.079 77.4321C312.591 77.6454 313.124 77.7521 313.679 77.7521C314.276 77.7521 314.809 77.5388 315.279 77.1121C315.748 76.6854 315.983 76.0241 315.983 75.1281C315.983 74.3174 315.577 73.6988 314.767 73.2721C313.999 72.8028 313.145 72.5681 312.207 72.5681C310.628 72.5681 309.177 72.8668 307.855 73.4641C306.532 74.0188 305.359 74.8081 304.335 75.8321C303.311 76.8134 302.457 77.9441 301.775 79.2241C301.561 79.6365 301.369 80.0537 301.199 80.4757V75.9601C301.199 75.2348 300.964 74.6374 300.495 74.1681C300.025 73.6561 299.407 73.4001 298.639 73.4001C297.913 73.4001 297.295 73.6561 296.783 74.1681C296.313 74.6374 296.079 75.2348 296.079 75.9601V103.864C296.079 104.589 296.313 105.208 296.783 105.72ZM337.023 99.5121C336.981 100.109 337.151 100.685 337.535 101.24C339.199 103.373 341.162 104.888 343.423 105.784C345.727 106.68 348.053 107.128 350.399 107.128C352.49 107.128 354.431 106.765 356.223 106.04C358.058 105.272 359.53 104.184 360.639 102.776C361.749 101.325 362.303 99.6188 362.303 97.6561C362.303 95.9494 362.005 94.5414 361.407 93.4321C360.81 92.2801 359.999 91.3414 358.975 90.6161C357.951 89.8908 356.799 89.3148 355.519 88.8881C354.282 88.4188 352.981 88.0134 351.615 87.6721C350.122 87.2454 348.757 86.8188 347.519 86.3921C346.282 85.9228 345.301 85.3254 344.575 84.6001C343.85 83.8748 343.466 82.9361 343.423 81.7841C343.423 80.5468 343.743 79.5868 344.383 78.9041C345.066 78.1788 345.898 77.6668 346.879 77.3681C347.861 77.0694 348.863 76.9201 349.887 76.9201C351.509 76.9201 352.981 77.2188 354.303 77.8161C355.669 78.3708 356.799 79.1814 357.695 80.2481C358.079 80.6321 358.549 80.8454 359.103 80.8881C359.701 80.9308 360.234 80.7814 360.703 80.4401C361.301 79.9281 361.578 79.3521 361.535 78.7121C361.493 78.0721 361.279 77.5388 360.895 77.1121C359.957 75.9601 358.869 75.0641 357.631 74.4241C356.394 73.7414 355.114 73.2721 353.791 73.0161C352.511 72.7174 351.274 72.5681 350.079 72.5681C347.989 72.5681 346.047 72.9521 344.255 73.7201C342.506 74.4881 341.098 75.5761 340.031 76.9841C339.007 78.3921 338.495 80.0561 338.495 81.9761C338.495 83.5974 338.815 84.9841 339.455 86.1361C340.138 87.2454 341.013 88.1841 342.079 88.9521C343.189 89.6774 344.426 90.2961 345.791 90.8081C347.157 91.2774 348.543 91.7041 349.951 92.0881C351.317 92.4294 352.575 92.8348 353.727 93.3041C354.879 93.7308 355.818 94.3068 356.543 95.0321C357.269 95.7148 357.631 96.6534 357.631 97.8481C357.631 99.0854 357.269 100.088 356.543 100.856C355.861 101.581 355.007 102.093 353.983 102.392C352.959 102.691 351.935 102.861 350.911 102.904C348.693 102.904 346.815 102.499 345.279 101.688C343.743 100.835 342.378 99.7041 341.183 98.2961C340.714 97.7841 340.181 97.5068 339.583 97.4641C339.029 97.4214 338.538 97.5494 338.111 97.8481C337.429 98.3174 337.066 98.8721 337.023 99.5121ZM376.04 104.952C378.6 106.403 381.586 107.128 385 107.128C387.304 107.128 389.48 106.637 391.528 105.656C393.576 104.632 395.197 103.459 396.392 102.136C397.074 101.581 397.416 100.941 397.416 100.216C397.416 99.6188 397.202 99.1068 396.776 98.6801C396.392 98.2534 395.88 98.0401 395.24 98.0401C394.728 98.0401 394.194 98.2321 393.64 98.6161C393.085 99.2134 392.402 99.8108 391.592 100.408C390.781 100.963 389.821 101.432 388.712 101.816C387.602 102.2 386.301 102.392 384.808 102.392C382.418 102.392 380.328 101.859 378.536 100.792C376.744 99.6828 375.336 98.1894 374.312 96.3121C373.459 94.6814 372.977 92.8254 372.865 90.7441H396.136C396.818 90.7441 397.416 90.5094 397.928 90.0401C398.44 89.5708 398.696 88.9948 398.696 88.3121C398.653 85.9228 398.205 83.7681 397.352 81.8481C396.498 79.8854 395.368 78.2214 393.96 76.8561C392.552 75.4481 390.93 74.3814 389.096 73.6561C387.261 72.9308 385.362 72.5681 383.4 72.5681C380.754 72.5681 378.237 73.2721 375.848 74.6801C373.501 76.0454 371.581 78.0508 370.088 80.6961C368.637 83.2988 367.912 86.4561 367.912 90.1681C367.912 93.4961 368.616 96.4401 370.024 99.0001C371.474 101.517 373.48 103.501 376.04 104.952ZM373.126 86.3281C373.273 85.521 373.476 84.7743 373.736 84.0881C374.376 82.5094 375.186 81.2294 376.168 80.2481C377.192 79.2241 378.322 78.4988 379.56 78.0721C380.84 77.6028 382.12 77.3681 383.4 77.3681C384.978 77.3681 386.472 77.7094 387.88 78.3921C389.33 79.0748 390.546 80.0561 391.528 81.3361C392.552 82.5734 393.149 84.0668 393.32 85.8161V86.3281H373.126ZM407.095 105.72C407.607 106.232 408.226 106.488 408.951 106.488C409.677 106.488 410.274 106.232 410.743 105.72C411.255 105.208 411.511 104.589 411.511 103.864V88.3121C411.511 86.7761 411.767 85.3468 412.279 84.0241C412.834 82.6588 413.538 81.4428 414.391 80.3761C415.287 79.3094 416.247 78.4988 417.271 77.9441C418.338 77.3468 419.405 77.0481 420.471 77.0481C421.239 77.0481 421.879 77.1761 422.391 77.4321C422.903 77.6454 423.437 77.7521 423.991 77.7521C424.589 77.7521 425.122 77.5388 425.591 77.1121C426.061 76.6854 426.295 76.0241 426.295 75.1281C426.295 74.3174 425.89 73.6988 425.079 73.2721C424.311 72.8028 423.458 72.5681 422.519 72.5681C420.941 72.5681 419.49 72.8668 418.167 73.4641C416.845 74.0188 415.671 74.8081 414.647 75.8321C413.623 76.8134 412.77 77.9441 412.087 79.2241C411.874 79.6365 411.682 80.0537 411.511 80.4757V75.9601C411.511 75.2348 411.277 74.6374 410.807 74.1681C410.338 73.6561 409.719 73.4001 408.951 73.4001C408.226 73.4001 407.607 73.6561 407.095 74.1681C406.626 74.6374 406.391 75.2348 406.391 75.9601V103.864C406.391 104.589 406.626 105.208 407.095 105.72ZM436.738 73.2721C436.269 72.9734 435.778 72.8241 435.266 72.8241C434.456 72.8241 433.816 73.0801 433.346 73.5921C432.92 74.0614 432.706 74.5734 432.706 75.1281C432.706 75.4268 432.728 75.6828 432.77 75.8961C432.856 76.1094 432.941 76.3014 433.026 76.4721L445.378 104.824C445.592 105.421 445.933 105.869 446.402 106.168C446.914 106.424 447.448 106.531 448.002 106.488C449.026 106.445 449.773 105.891 450.242 104.824L462.594 76.4081C462.68 76.2374 462.744 76.0454 462.786 75.8321C462.872 75.5761 462.914 75.3201 462.914 75.0641C462.914 74.4241 462.68 73.8908 462.21 73.4641C461.741 73.0374 461.186 72.8241 460.546 72.8241C459.437 72.7814 458.648 73.3361 458.178 74.4881L447.983 98.4373L437.762 74.4241C437.549 73.9121 437.208 73.5281 436.738 73.2721ZM473.989 105.72C474.501 105.208 474.757 104.589 474.757 103.864V75.4481C474.757 74.7228 474.501 74.1254 473.989 73.6561C473.519 73.1441 472.922 72.8881 472.197 72.8881C471.471 72.8881 470.853 73.1441 470.341 73.6561C469.871 74.1254 469.637 74.7228 469.637 75.4481V103.864C469.637 104.589 469.871 105.208 470.341 105.72C470.81 106.232 471.429 106.488 472.197 106.488C472.922 106.488 473.519 106.232 473.989 105.72ZM469.829 67.9601C470.341 68.3868 471.13 68.6001 472.197 68.6001C473.221 68.6001 473.989 68.3868 474.501 67.9601C475.055 67.5334 475.333 66.8721 475.333 65.9761V65.0801C475.333 64.1841 475.077 63.5228 474.565 63.0961C474.053 62.6694 473.285 62.4561 472.261 62.4561C471.237 62.4561 470.447 62.6694 469.893 63.0961C469.338 63.5228 469.061 64.1841 469.061 65.0801V65.9761C469.061 66.8721 469.317 67.5334 469.829 67.9601ZM504.562 73.2721C502.812 72.8028 500.85 72.5681 498.674 72.5681C495.388 72.5681 492.508 73.3361 490.034 74.8721C487.559 76.4081 485.618 78.4774 484.21 81.0801C482.844 83.6828 482.162 86.6054 482.162 89.8481C482.162 93.0908 482.823 96.0348 484.146 98.6801C485.511 101.283 487.41 103.352 489.842 104.888C492.274 106.381 495.111 107.128 498.354 107.128C500.658 107.128 502.706 106.829 504.498 106.232C506.332 105.635 507.783 104.909 508.85 104.056C509.916 103.203 510.45 102.392 510.45 101.624C510.45 100.941 510.236 100.365 509.81 99.8961C509.426 99.4268 508.871 99.1921 508.146 99.1921C507.463 99.1921 506.908 99.4054 506.482 99.8321C506.098 100.259 505.522 100.685 504.754 101.112C504.156 101.453 503.41 101.752 502.514 102.008C501.618 102.264 500.423 102.392 498.93 102.392C496.626 102.392 494.599 101.837 492.85 100.728C491.1 99.6188 489.735 98.1254 488.754 96.2481C487.772 94.3708 487.282 92.2374 487.282 89.8481C487.282 87.4588 487.794 85.3254 488.818 83.4481C489.842 81.5708 491.228 80.0774 492.978 78.9681C494.77 77.8588 496.839 77.3041 499.186 77.3041C500.167 77.3041 501.148 77.3894 502.13 77.5601C503.111 77.7308 503.858 77.9654 504.37 78.2641C504.924 78.5201 505.351 78.8188 505.65 79.1601C505.991 79.5014 506.332 79.7788 506.674 79.9921C507.058 80.2054 507.548 80.3121 508.146 80.3121C508.786 80.3121 509.298 80.0561 509.682 79.5441C510.066 79.0321 510.258 78.4988 510.258 77.9441C510.258 76.9201 509.746 76.0028 508.722 75.1921C507.698 74.3814 506.311 73.7414 504.562 73.2721ZM523.477 104.952C526.037 106.403 529.024 107.128 532.437 107.128C534.741 107.128 536.917 106.637 538.965 105.656C541.013 104.632 542.635 103.459 543.829 102.136C544.512 101.581 544.853 100.941 544.853 100.216C544.853 99.6188 544.64 99.1068 544.213 98.6801C543.829 98.2534 543.317 98.0401 542.677 98.0401C542.165 98.0401 541.632 98.2321 541.077 98.6161C540.523 99.2134 539.84 99.8108 539.029 100.408C538.219 100.963 537.259 101.432 536.149 101.816C535.04 102.2 533.739 102.392 532.245 102.392C529.856 102.392 527.765 101.859 525.973 100.792C524.181 99.6828 522.773 98.1894 521.749 96.3121C520.897 94.6814 520.415 92.8254 520.303 90.7441H543.573C544.256 90.7441 544.853 90.5094 545.365 90.0401C545.877 89.5708 546.133 88.9948 546.133 88.3121C546.091 85.9228 545.643 83.7681 544.789 81.8481C543.936 79.8854 542.805 78.2214 541.397 76.8561C539.989 75.4481 538.368 74.3814 536.533 73.6561C534.698 72.9308 532.8 72.5681 530.837 72.5681C528.192 72.5681 525.674 73.2721 523.285 74.6801C520.939 76.0454 519.018 78.0508 517.525 80.6961C516.075 83.2988 515.349 86.4561 515.349 90.1681C515.349 93.4961 516.053 96.4401 517.461 99.0001C518.912 101.517 520.917 103.501 523.477 104.952ZM520.564 86.3281C520.71 85.521 520.914 84.7743 521.173 84.0881C521.813 82.5094 522.624 81.2294 523.605 80.2481C524.629 79.2241 525.76 78.4988 526.997 78.0721C528.277 77.6028 529.557 77.3681 530.837 77.3681C532.416 77.3681 533.909 77.7094 535.317 78.3921C536.768 79.0748 537.984 80.0561 538.965 81.3361C539.989 82.5734 540.586 84.0668 540.757 85.8161V86.3281H520.564ZM579.326 83.5761C578.856 84.0454 578.622 84.6428 578.622 85.3681V92.0881C578.622 92.8134 578.856 93.4321 579.326 93.9441C579.795 94.4561 580.414 94.7121 581.182 94.7121C581.907 94.7121 582.504 94.4561 582.974 93.9441C583.443 93.4321 583.678 92.8134 583.678 92.0881V86.9921C585.367 86.7972 586.946 86.3626 588.414 85.6881C589.992 84.9628 591.379 84.0028 592.574 82.8081C593.768 81.5708 594.686 80.1628 595.326 78.5841C596.008 77.0054 596.35 75.2774 596.35 73.4001C596.35 70.5841 595.71 68.1308 594.43 66.0401C593.15 63.9068 591.443 62.2428 589.31 61.0481C587.176 59.8534 584.808 59.2561 582.206 59.2561C579.859 59.2561 577.64 59.7681 575.55 60.7921C573.459 61.7734 571.71 63.1174 570.302 64.8241C569.747 65.4214 569.491 66.0828 569.534 66.8081C569.619 67.4908 570.024 68.0881 570.75 68.6001C571.39 69.0268 572.008 69.1548 572.606 68.9841C573.246 68.8134 573.8 68.4934 574.27 68.0241C575.251 66.9148 576.424 66.0188 577.79 65.3361C579.155 64.6534 580.627 64.3121 582.206 64.3121C583.87 64.3121 585.363 64.6961 586.686 65.4641C588.051 66.2321 589.118 67.2988 589.886 68.6641C590.696 70.0294 591.102 71.6081 591.102 73.4001C591.102 75.3201 590.654 76.9841 589.758 78.3921C588.904 79.7574 587.731 80.8241 586.238 81.5921C584.744 82.3174 583.059 82.7228 581.182 82.8081C580.456 82.8081 579.838 83.0641 579.326 83.5761ZM579.006 105.72C579.475 106.232 580.158 106.488 581.054 106.488H581.63C582.526 106.488 583.208 106.232 583.678 105.72C584.147 105.165 584.382 104.44 584.382 103.544V102.264C584.382 101.368 584.147 100.664 583.678 100.152C583.208 99.6401 582.526 99.3841 581.63 99.3841H581.054C580.158 99.3841 579.475 99.6401 579.006 100.152C578.536 100.664 578.302 101.368 578.302 102.264V103.544C578.302 104.44 578.536 105.165 579.006 105.72Z" fill="#051A4A"/>
</svg>
