<svg width="567" height="155" viewBox="0 0 567 155" fill="none" xmlns="http://www.w3.org/2000/svg">
<path fill-rule="evenodd" clip-rule="evenodd" d="M172.823 9.33025C158.483 14.2183 142.756 19.5792 128.169 21.1322C112.471 22.698 98.0983 19.8343 85.7442 17.3728C73.2726 14.8879 62.8579 12.8128 55.2118 16.1184C44.3878 20.9327 39.0301 36.5454 32.6346 55.1825C29.9975 62.8673 27.1839 71.0662 23.7379 79.2343C20.4174 87.105 16.5161 94.9561 12.8463 102.341C3.47147 121.207 -4.39212 137.032 2.79921 142.374C8.42171 146.673 23.6268 144.409 40.3952 141.912C53.0273 140.031 66.5467 138.018 77.5247 138.579C91.7016 139.368 101.612 144.431 109.921 148.676C116.5 152.037 122.076 154.886 127.971 154.693C141.184 154.261 155.776 138.545 171.665 121.434L172.127 120.936C181.679 110.618 191.623 99.8336 200.301 87.5463C200.587 88.3396 200.933 89.1024 201.342 89.8345C202.742 92.2745 204.622 94.1945 206.982 95.5945C209.342 96.9945 211.982 97.6945 214.902 97.6945C217.822 97.6945 220.442 96.9945 222.762 95.5945C225.122 94.1945 226.982 92.2745 228.342 89.8345C229.742 87.3945 230.442 84.6145 230.442 81.4945C230.442 78.3745 229.742 75.5945 228.342 73.1545C226.982 70.7145 225.122 68.7945 222.762 67.3945C220.442 65.9945 217.822 65.2945 214.902 65.2945C214.383 65.2945 213.872 65.3166 213.371 65.3608C214.099 63.8186 214.801 62.252 215.476 60.66C225.976 36.1854 229.884 5.61348 213.353 0.953828C204.413 -1.4377 189.563 3.62417 172.823 9.33025ZM210.8 70.5145C211.688 68.8265 212.546 67.1093 213.371 65.3608C211.052 65.5654 208.922 66.2433 206.982 67.3945C204.622 68.7945 202.742 70.7145 201.342 73.1545C199.982 75.5945 199.302 78.3745 199.302 81.4945C199.302 83.6783 199.635 85.6956 200.301 87.5463C201.6 85.7069 202.871 83.8339 204.107 81.9237C204.164 84.0288 204.642 85.9057 205.542 87.5545C206.502 89.3145 207.782 90.7145 209.382 91.7545C211.022 92.7545 212.862 93.2545 214.902 93.2545C216.942 93.2545 218.762 92.7545 220.362 91.7545C222.002 90.7145 223.282 89.3145 224.202 87.5545C225.162 85.7945 225.642 83.7745 225.642 81.4945C225.642 79.1745 225.162 77.1345 224.202 75.3745C223.282 73.6145 222.002 72.2345 220.362 71.2345C218.762 70.2345 216.942 69.7345 214.902 69.7345C213.43 69.7345 212.063 69.9945 210.8 70.5145ZM210.8 70.5145C208.72 74.4702 206.476 78.2651 204.107 81.9237C204.103 81.7817 204.102 81.6386 204.102 81.4945C204.102 79.1745 204.582 77.1345 205.542 75.3745C206.502 73.6145 207.782 72.2345 209.382 71.2345C209.839 70.9556 210.312 70.7156 210.8 70.5145ZM108.947 55.5745C108.427 55.1345 107.847 54.9145 107.207 54.9145C106.687 54.9145 106.207 55.0545 105.767 55.3345C105.327 55.6145 105.027 55.9945 104.867 56.4745L94.0924 88.3933L84.9472 65.4145C84.7872 64.9345 84.4872 64.5545 84.0471 64.2745C83.6472 63.9945 83.2072 63.8545 82.7271 63.8545C82.2072 63.8545 81.7472 63.9945 81.3472 64.2745C80.9472 64.5545 80.6472 64.9345 80.4472 65.4145L71.1243 88.4643L60.2872 56.4745C60.1272 55.9945 59.8272 55.6145 59.3872 55.3345C58.9472 55.0545 58.4872 54.9145 58.0072 54.9145C57.4072 54.9145 56.8072 55.1545 56.2072 55.6345C55.6472 56.0745 55.3672 56.6945 55.3672 57.4945C55.3672 57.7345 55.4072 58.0145 55.4872 58.3345L68.2672 95.5345C68.4272 96.0145 68.7072 96.3945 69.1072 96.6745C69.5471 96.9145 69.9872 97.0545 70.4272 97.0945C70.9072 97.0945 71.3671 96.9745 71.8072 96.7345C72.2472 96.4545 72.5872 96.0545 72.8271 95.5345L82.5842 71.9647L92.3272 95.5345C92.5672 96.0545 92.9072 96.4545 93.3472 96.7345C93.7872 96.9745 94.2472 97.0945 94.7272 97.0945C95.1672 97.0545 95.5872 96.9145 95.9872 96.6745C96.4272 96.3945 96.7272 96.0145 96.8872 95.5345L109.667 58.3345C109.747 58.0145 109.787 57.7145 109.787 57.4345C109.787 56.6345 109.507 56.0145 108.947 55.5745ZM137.026 67.3345C135.506 66.1745 133.426 65.5945 130.786 65.5945C129.386 65.5945 128.046 65.8545 126.766 66.3745C125.486 66.8545 124.326 67.5145 123.286 68.3545C122.246 69.1945 121.386 70.1545 120.706 71.2345C120.665 71.297 120.625 71.3595 120.586 71.422V55.0945C120.586 54.4145 120.366 53.8545 119.926 53.4145C119.486 52.9345 118.906 52.6945 118.186 52.6945C117.506 52.6945 116.926 52.9345 116.446 53.4145C116.006 53.8545 115.786 54.4145 115.786 55.0945V94.6345C115.786 95.3145 116.006 95.8945 116.446 96.3745C116.926 96.8545 117.506 97.0945 118.186 97.0945C118.866 97.0945 119.426 96.8545 119.866 96.3745C120.346 95.8945 120.586 95.3145 120.586 94.6345V78.1945C120.586 76.6745 120.986 75.3145 121.786 74.1145C122.586 72.8745 123.666 71.8945 125.026 71.1745C126.386 70.4145 127.886 70.0345 129.526 70.0345C131.286 70.0345 132.666 70.4145 133.666 71.1745C134.706 71.8945 135.446 72.8745 135.886 74.1145C136.326 75.3145 136.546 76.6745 136.546 78.1945V94.6345C136.546 95.3145 136.766 95.8945 137.206 96.3745C137.686 96.8545 138.266 97.0945 138.946 97.0945C139.626 97.0945 140.186 96.8545 140.626 96.3745C141.106 95.8945 141.346 95.3145 141.346 94.6345V78.1945C141.346 75.8745 141.006 73.7745 140.326 71.8945C139.686 69.9745 138.586 68.4545 137.026 67.3345ZM174.846 66.3145C174.406 65.8345 173.846 65.5945 173.166 65.5945C172.446 65.5945 171.866 65.8345 171.426 66.3145C170.986 66.7545 170.766 67.3145 170.766 67.9945V85.0345C170.766 86.5545 170.366 87.9545 169.566 89.2345C168.806 90.4745 167.766 91.4545 166.446 92.1745C165.166 92.8945 163.726 93.2545 162.126 93.2545C159.606 93.2545 157.746 92.5745 156.546 91.2145C155.346 89.8145 154.746 87.7545 154.746 85.0345V67.9945C154.746 67.3145 154.526 66.7545 154.086 66.3145C153.646 65.8345 153.066 65.5945 152.346 65.5945C151.666 65.5945 151.086 65.8345 150.606 66.3145C150.166 66.7545 149.946 67.3145 149.946 67.9945V86.1145C149.946 88.3945 150.346 90.4145 151.146 92.1745C151.986 93.8945 153.186 95.2545 154.746 96.2545C156.346 97.2145 158.286 97.6945 160.566 97.6945C162.246 97.6945 163.786 97.4345 165.186 96.9145C166.586 96.3945 167.826 95.6745 168.906 94.7545C169.623 94.1437 170.243 93.4625 170.766 92.7107V94.2745C170.766 96.5545 170.366 98.4545 169.566 99.9745C168.766 101.534 167.626 102.714 166.146 103.514C164.666 104.314 162.886 104.714 160.806 104.714C159.286 104.714 157.906 104.454 156.666 103.934C155.466 103.454 154.546 103.074 153.906 102.794C153.306 102.514 152.726 102.514 152.166 102.794C151.646 103.074 151.246 103.574 150.966 104.294C150.766 104.894 150.806 105.454 151.086 105.974C151.406 106.534 151.946 106.994 152.706 107.354C153.626 107.874 154.806 108.294 156.246 108.614C157.686 108.934 159.186 109.094 160.746 109.094C163.546 109.094 166.046 108.554 168.246 107.474C170.486 106.394 172.266 104.734 173.586 102.494C174.906 100.294 175.566 97.5145 175.566 94.1545V67.9945C175.566 67.3145 175.326 66.7545 174.846 66.3145ZM262.621 66.7945C262.181 66.3145 261.601 66.0745 260.881 66.0745C260.201 66.0745 259.621 66.3145 259.141 66.7945C258.701 67.2345 258.481 67.7945 258.481 68.4745V84.8545C258.481 87.5745 257.781 89.6345 256.381 91.0345C255.021 92.4345 253.041 93.1345 250.441 93.1345C247.921 93.1345 245.961 92.4345 244.561 91.0345C243.161 89.6345 242.461 87.5745 242.461 84.8545V68.4745C242.461 67.7945 242.241 67.2345 241.801 66.7945C241.361 66.3145 240.781 66.0745 240.061 66.0745C239.381 66.0745 238.801 66.3145 238.321 66.7945C237.881 67.2345 237.661 67.7945 237.661 68.4745V84.8545C237.661 88.8945 238.781 92.0345 241.021 94.2745C243.301 96.4745 246.441 97.5745 250.441 97.5745C254.481 97.5745 257.621 96.4745 259.861 94.2745C262.141 92.0345 263.281 88.8945 263.281 84.8545V68.4745C263.281 67.7945 263.061 67.2345 262.621 66.7945ZM272.833 96.3745C273.313 96.8545 273.893 97.0945 274.573 97.0945C275.253 97.0945 275.813 96.8545 276.253 96.3745C276.733 95.8945 276.973 95.3145 276.973 94.6345V80.0545C276.973 78.6145 277.213 77.2745 277.693 76.0345C278.213 74.7545 278.873 73.6145 279.673 72.6145C280.513 71.6145 281.413 70.8545 282.373 70.3345C283.373 69.7745 284.373 69.4945 285.373 69.4945C286.093 69.4945 286.693 69.6145 287.173 69.8545C287.653 70.0545 288.153 70.1545 288.673 70.1545C289.233 70.1545 289.733 69.9545 290.173 69.5545C290.613 69.1545 290.833 68.5345 290.833 67.6945C290.833 66.9345 290.453 66.3545 289.693 65.9545C288.973 65.5145 288.173 65.2945 287.293 65.2945C285.813 65.2945 284.453 65.5745 283.213 66.1345C281.973 66.6545 280.873 67.3945 279.913 68.3545C278.953 69.2745 278.153 70.3345 277.513 71.5345C277.313 71.9211 277.133 72.3123 276.973 72.7078V68.4745C276.973 67.7945 276.753 67.2345 276.313 66.7945C275.873 66.3145 275.293 66.0745 274.573 66.0745C273.893 66.0745 273.313 66.3145 272.833 66.7945C272.393 67.2345 272.173 67.7945 272.173 68.4745V94.6345C272.173 95.3145 272.393 95.8945 272.833 96.3745ZM310.558 90.5545C310.518 91.1145 310.678 91.6545 311.038 92.1745C312.598 94.1745 314.438 95.5945 316.558 96.4345C318.718 97.2745 320.898 97.6945 323.098 97.6945C325.058 97.6945 326.878 97.3545 328.558 96.6745C330.278 95.9545 331.658 94.9345 332.698 93.6145C333.738 92.2545 334.258 90.6545 334.258 88.8145C334.258 87.2145 333.978 85.8945 333.418 84.8545C332.858 83.7745 332.098 82.8945 331.138 82.2145C330.178 81.5345 329.098 80.9945 327.898 80.5945C326.738 80.1545 325.518 79.7745 324.238 79.4545C322.838 79.0545 321.558 78.6545 320.398 78.2545C319.238 77.8145 318.318 77.2545 317.638 76.5745C316.958 75.8945 316.598 75.0145 316.558 73.9345C316.558 72.7745 316.858 71.8745 317.458 71.2345C318.098 70.5545 318.878 70.0745 319.798 69.7945C320.718 69.5145 321.658 69.3745 322.618 69.3745C324.138 69.3745 325.518 69.6545 326.758 70.2145C328.038 70.7345 329.098 71.4945 329.938 72.4945C330.298 72.8545 330.738 73.0545 331.258 73.0945C331.818 73.1345 332.318 72.9945 332.758 72.6745C333.318 72.1945 333.578 71.6545 333.538 71.0545C333.498 70.4545 333.298 69.9545 332.938 69.5545C332.058 68.4745 331.038 67.6345 329.878 67.0345C328.718 66.3945 327.518 65.9545 326.278 65.7145C325.078 65.4345 323.918 65.2945 322.798 65.2945C320.838 65.2945 319.018 65.6545 317.338 66.3745C315.698 67.0945 314.378 68.1145 313.378 69.4345C312.418 70.7545 311.938 72.3145 311.938 74.1145C311.938 75.6345 312.238 76.9345 312.838 78.0145C313.478 79.0545 314.298 79.9345 315.298 80.6545C316.338 81.3345 317.498 81.9145 318.778 82.3945C320.058 82.8345 321.358 83.2345 322.678 83.5945C323.958 83.9145 325.138 84.2945 326.218 84.7345C327.298 85.1345 328.178 85.6745 328.858 86.3545C329.538 86.9945 329.878 87.8745 329.878 88.9945C329.878 90.1545 329.538 91.0945 328.858 91.8145C328.218 92.4945 327.418 92.9745 326.458 93.2545C325.498 93.5345 324.538 93.6945 323.578 93.7345C321.498 93.7345 319.738 93.3545 318.298 92.5945C316.858 91.7945 315.578 90.7345 314.458 89.4145C314.018 88.9345 313.518 88.6745 312.958 88.6345C312.438 88.5945 311.978 88.7145 311.578 88.9945C310.938 89.4345 310.598 89.9545 310.558 90.5545ZM347.136 95.6545C349.536 97.0145 352.336 97.6945 355.536 97.6945C357.696 97.6945 359.736 97.2345 361.656 96.3145C363.576 95.3545 365.096 94.2545 366.216 93.0145C366.856 92.4945 367.176 91.8945 367.176 91.2145C367.176 90.6545 366.976 90.1745 366.576 89.7745C366.216 89.3745 365.736 89.1745 365.136 89.1745C364.656 89.1745 364.156 89.3545 363.636 89.7145C363.116 90.2745 362.476 90.8345 361.716 91.3945C360.956 91.9145 360.056 92.3545 359.016 92.7145C357.976 93.0745 356.756 93.2545 355.356 93.2545C353.116 93.2545 351.156 92.7545 349.476 91.7545C347.796 90.7145 346.476 89.3145 345.516 87.5545C344.717 86.0257 344.265 84.2857 344.16 82.3345H365.976C366.616 82.3345 367.176 82.1145 367.656 81.6745C368.136 81.2345 368.376 80.6945 368.376 80.0545C368.336 77.8145 367.916 75.7945 367.116 73.9945C366.316 72.1545 365.256 70.5945 363.936 69.3145C362.616 67.9945 361.096 66.9945 359.376 66.3145C357.656 65.6345 355.876 65.2945 354.036 65.2945C351.556 65.2945 349.196 65.9545 346.956 67.2745C344.756 68.5545 342.956 70.4345 341.556 72.9145C340.196 75.3545 339.516 78.3145 339.516 81.7945C339.516 84.9145 340.176 87.6745 341.496 90.0745C342.856 92.4345 344.736 94.2945 347.136 95.6545ZM344.405 78.1945C344.542 77.4378 344.733 76.7378 344.976 76.0945C345.576 74.6145 346.336 73.4145 347.256 72.4945C348.216 71.5345 349.276 70.8545 350.436 70.4545C351.636 70.0145 352.836 69.7945 354.036 69.7945C355.516 69.7945 356.916 70.1145 358.236 70.7545C359.596 71.3945 360.736 72.3145 361.656 73.5145C362.616 74.6745 363.176 76.0745 363.336 77.7145V78.1945H344.405ZM376.251 96.3745C376.731 96.8545 377.311 97.0945 377.991 97.0945C378.671 97.0945 379.231 96.8545 379.671 96.3745C380.151 95.8945 380.391 95.3145 380.391 94.6345V80.0545C380.391 78.6145 380.631 77.2745 381.111 76.0345C381.631 74.7545 382.291 73.6145 383.091 72.6145C383.931 71.6145 384.831 70.8545 385.791 70.3345C386.791 69.7745 387.791 69.4945 388.791 69.4945C389.511 69.4945 390.111 69.6145 390.591 69.8545C391.071 70.0545 391.571 70.1545 392.091 70.1545C392.651 70.1545 393.151 69.9545 393.591 69.5545C394.031 69.1545 394.251 68.5345 394.251 67.6945C394.251 66.9345 393.871 66.3545 393.111 65.9545C392.391 65.5145 391.591 65.2945 390.711 65.2945C389.231 65.2945 387.871 65.5745 386.631 66.1345C385.391 66.6545 384.291 67.3945 383.331 68.3545C382.371 69.2745 381.571 70.3345 380.931 71.5345C380.731 71.9211 380.551 72.3123 380.391 72.7078V68.4745C380.391 67.7945 380.171 67.2345 379.731 66.7945C379.291 66.3145 378.711 66.0745 377.991 66.0745C377.311 66.0745 376.731 66.3145 376.251 66.7945C375.811 67.2345 375.591 67.7945 375.591 68.4745V94.6345C375.591 95.3145 375.811 95.8945 376.251 96.3745ZM404.041 65.9545C403.601 65.6745 403.141 65.5345 402.661 65.5345C401.901 65.5345 401.301 65.7745 400.861 66.2545C400.461 66.6945 400.261 67.1745 400.261 67.6945C400.261 67.9745 400.281 68.2145 400.321 68.4145C400.401 68.6145 400.481 68.7945 400.561 68.9545L412.141 95.5345C412.341 96.0945 412.661 96.5145 413.101 96.7945C413.581 97.0345 414.081 97.1345 414.601 97.0945C415.561 97.0545 416.261 96.5345 416.701 95.5345L428.281 68.8945C428.361 68.7345 428.421 68.5545 428.461 68.3545C428.541 68.1145 428.581 67.8745 428.581 67.6345C428.581 67.0345 428.361 66.5345 427.921 66.1345C427.481 65.7345 426.961 65.5345 426.361 65.5345C425.321 65.4945 424.581 66.0145 424.141 67.0945L414.583 89.5469L405.001 67.0345C404.801 66.5545 404.481 66.1945 404.041 65.9545ZM438.964 96.3745C439.444 95.8945 439.684 95.3145 439.684 94.6345V67.9945C439.684 67.3145 439.444 66.7545 438.964 66.3145C438.524 65.8345 437.964 65.5945 437.284 65.5945C436.604 65.5945 436.024 65.8345 435.544 66.3145C435.104 66.7545 434.884 67.3145 434.884 67.9945V94.6345C434.884 95.3145 435.104 95.8945 435.544 96.3745C435.984 96.8545 436.564 97.0945 437.284 97.0945C437.964 97.0945 438.524 96.8545 438.964 96.3745ZM435.064 60.9745C435.544 61.3745 436.284 61.5745 437.284 61.5745C438.244 61.5745 438.964 61.3745 439.444 60.9745C439.964 60.5745 440.224 59.9545 440.224 59.1145V58.2745C440.224 57.4345 439.984 56.8145 439.504 56.4145C439.024 56.0145 438.304 55.8145 437.344 55.8145C436.384 55.8145 435.644 56.0145 435.124 56.4145C434.604 56.8145 434.344 57.4345 434.344 58.2745V59.1145C434.344 59.9545 434.584 60.5745 435.064 60.9745ZM467.626 65.9545C465.986 65.5145 464.146 65.2945 462.106 65.2945C459.026 65.2945 456.326 66.0145 454.006 67.4545C451.686 68.8945 449.866 70.8345 448.546 73.2745C447.266 75.7145 446.626 78.4545 446.626 81.4945C446.626 84.5345 447.246 87.2945 448.486 89.7745C449.766 92.2145 451.546 94.1545 453.826 95.5945C456.106 96.9945 458.766 97.6945 461.806 97.6945C463.966 97.6945 465.886 97.4145 467.566 96.8545C469.286 96.2945 470.646 95.6145 471.646 94.8145C472.646 94.0145 473.146 93.2545 473.146 92.5345C473.146 91.8945 472.946 91.3545 472.546 90.9145C472.186 90.4745 471.666 90.2545 470.986 90.2545C470.346 90.2545 469.826 90.4545 469.426 90.8545C469.066 91.2545 468.526 91.6545 467.806 92.0545C467.246 92.3745 466.546 92.6545 465.706 92.8945C464.866 93.1345 463.746 93.2545 462.346 93.2545C460.186 93.2545 458.286 92.7345 456.646 91.6945C455.006 90.6545 453.726 89.2545 452.806 87.4945C451.886 85.7345 451.426 83.7345 451.426 81.4945C451.426 79.2545 451.906 77.2545 452.866 75.4945C453.826 73.7345 455.126 72.3345 456.766 71.2945C458.446 70.2545 460.386 69.7345 462.586 69.7345C463.506 69.7345 464.426 69.8145 465.346 69.9745C466.266 70.1345 466.966 70.3545 467.446 70.6345C467.966 70.8745 468.366 71.1545 468.646 71.4745C468.966 71.7945 469.286 72.0545 469.606 72.2545C469.966 72.4545 470.426 72.5545 470.986 72.5545C471.586 72.5545 472.066 72.3145 472.426 71.8345C472.786 71.3545 472.966 70.8545 472.966 70.3345C472.966 69.3745 472.486 68.5145 471.526 67.7545C470.566 66.9945 469.266 66.3945 467.626 65.9545ZM485.359 95.6545C487.759 97.0145 490.559 97.6945 493.759 97.6945C495.919 97.6945 497.959 97.2345 499.879 96.3145C501.799 95.3545 503.319 94.2545 504.439 93.0145C505.079 92.4945 505.399 91.8945 505.399 91.2145C505.399 90.6545 505.199 90.1745 504.799 89.7745C504.439 89.3745 503.959 89.1745 503.359 89.1745C502.879 89.1745 502.379 89.3545 501.859 89.7145C501.339 90.2745 500.699 90.8345 499.939 91.3945C499.179 91.9145 498.279 92.3545 497.239 92.7145C496.199 93.0745 494.979 93.2545 493.579 93.2545C491.339 93.2545 489.379 92.7545 487.699 91.7545C486.019 90.7145 484.699 89.3145 483.739 87.5545C482.94 86.0257 482.488 84.2857 482.383 82.3345H504.199C504.839 82.3345 505.399 82.1145 505.879 81.6745C506.359 81.2345 506.599 80.6945 506.599 80.0545C506.559 77.8145 506.139 75.7945 505.339 73.9945C504.539 72.1545 503.479 70.5945 502.159 69.3145C500.839 67.9945 499.319 66.9945 497.599 66.3145C495.879 65.6345 494.099 65.2945 492.259 65.2945C489.779 65.2945 487.419 65.9545 485.179 67.2745C482.979 68.5545 481.179 70.4345 479.779 72.9145C478.419 75.3545 477.739 78.3145 477.739 81.7945C477.739 84.9145 478.399 87.6745 479.719 90.0745C481.079 92.4345 482.959 94.2945 485.359 95.6545ZM482.628 78.1945C482.765 77.4378 482.956 76.7378 483.199 76.0945C483.799 74.6145 484.559 73.4145 485.479 72.4945C486.439 71.5345 487.499 70.8545 488.659 70.4545C489.859 70.0145 491.059 69.7945 492.259 69.7945C493.739 69.7945 495.139 70.1145 496.459 70.7545C497.819 71.3945 498.959 72.3145 499.879 73.5145C500.839 74.6745 501.399 76.0745 501.559 77.7145V78.1945H482.628ZM537.717 75.6145C537.277 76.0545 537.057 76.6145 537.057 77.2945V83.5945C537.057 84.2745 537.277 84.8545 537.717 85.3345C538.157 85.8145 538.737 86.0545 539.457 86.0545C540.137 86.0545 540.697 85.8145 541.137 85.3345C541.577 84.8545 541.797 84.2745 541.797 83.5945V78.817C543.381 78.6343 544.861 78.2268 546.237 77.5945C547.717 76.9145 549.017 76.0145 550.137 74.8945C551.257 73.7345 552.117 72.4145 552.717 70.9345C553.357 69.4545 553.677 67.8345 553.677 66.0745C553.677 63.4345 553.077 61.1345 551.877 59.1745C550.677 57.1745 549.077 55.6145 547.077 54.4945C545.077 53.3745 542.857 52.8145 540.417 52.8145C538.217 52.8145 536.137 53.2945 534.177 54.2545C532.217 55.1745 530.577 56.4345 529.257 58.0345C528.737 58.5945 528.497 59.2145 528.537 59.8945C528.617 60.5345 528.997 61.0945 529.677 61.5745C530.277 61.9745 530.857 62.0945 531.417 61.9345C532.017 61.7745 532.537 61.4745 532.977 61.0345C533.897 59.9945 534.997 59.1545 536.277 58.5145C537.557 57.8745 538.937 57.5545 540.417 57.5545C541.977 57.5545 543.377 57.9145 544.617 58.6345C545.897 59.3545 546.897 60.3545 547.617 61.6345C548.377 62.9145 548.757 64.3945 548.757 66.0745C548.757 67.8745 548.337 69.4345 547.497 70.7545C546.697 72.0345 545.597 73.0345 544.197 73.7545C542.797 74.4345 541.217 74.8145 539.457 74.8945C538.777 74.8945 538.197 75.1345 537.717 75.6145ZM537.417 96.3745C537.857 96.8545 538.497 97.0945 539.337 97.0945H539.877C540.717 97.0945 541.357 96.8545 541.797 96.3745C542.237 95.8545 542.457 95.1745 542.457 94.3345V93.1345C542.457 92.2945 542.237 91.6345 541.797 91.1545C541.357 90.6745 540.717 90.4345 539.877 90.4345H539.337C538.497 90.4345 537.857 90.6745 537.417 91.1545C536.977 91.6345 536.757 92.2945 536.757 93.1345V94.3345C536.757 95.1745 536.977 95.8545 537.417 96.3745Z" fill="#051A4A"/>
</svg>
