<svg width="300" height="85" viewBox="0 0 300 85" fill="none" xmlns="http://www.w3.org/2000/svg">
<path fill-rule="evenodd" clip-rule="evenodd" d="M94.8865 4.93239C87.0132 7.61614 78.3786 10.5594 70.37 11.4121C61.7507 12.2718 53.8597 10.6995 47.0769 9.34809C40.2295 7.98377 34.5114 6.84446 30.3134 8.65934C24.3706 11.3026 21.429 19.8746 17.9176 30.1071C16.4698 34.3263 14.925 38.8278 13.033 43.3124C11.2099 47.6337 9.06796 51.9443 7.05312 55.999C1.90597 66.3572 -2.41144 75.0457 1.53687 77.9783C4.62384 80.3387 12.972 79.0957 22.1785 77.7249C29.114 76.6922 36.5367 75.587 42.564 75.8952C50.3477 76.3279 55.7887 79.1078 60.3508 81.4385C63.9632 83.2841 67.0244 84.8481 70.2611 84.7423C77.5152 84.5051 85.5273 75.8763 94.2508 66.4814L94.5043 66.2083C99.9154 60.3629 105.556 54.2454 110.425 47.2299C110.604 48.0632 110.895 48.8407 111.297 49.5624C112.044 50.8637 113.047 51.8877 114.305 52.6344C115.564 53.381 116.972 53.7544 118.529 53.7544C120.087 53.7544 121.484 53.381 122.721 52.6344C123.98 51.8877 124.972 50.8637 125.697 49.5624C126.444 48.261 126.817 46.7784 126.817 45.1144C126.817 43.4504 126.444 41.9677 125.697 40.6664C124.972 39.365 123.98 38.341 122.721 37.5944C121.484 36.8477 120.087 36.4744 118.529 36.4744C117.889 36.4744 117.273 36.5376 116.683 36.664C117.25 35.5064 117.792 34.3238 118.304 33.1144C124.069 19.6769 126.215 2.89175 117.139 0.333419C112.23 -0.979623 104.077 1.79954 94.8865 4.93239ZM114.821 40.2142C115.468 39.0566 116.09 37.874 116.683 36.664C115.839 36.8448 115.046 37.1549 114.305 37.5944C113.047 38.341 112.044 39.365 111.297 40.6664C110.572 41.9677 110.209 43.4504 110.209 45.1144C110.209 45.8555 110.281 46.5607 110.425 47.2299C111.297 45.9736 112.145 44.6885 112.961 43.371C112.833 43.9148 112.769 44.4959 112.769 45.1144C112.769 46.3304 113.025 47.4077 113.537 48.3464C114.049 49.285 114.732 50.0317 115.585 50.5864C116.46 51.1197 117.441 51.3864 118.529 51.3864C119.617 51.3864 120.588 51.1197 121.441 50.5864C122.316 50.0317 122.999 49.285 123.489 48.3464C124.001 47.4077 124.257 46.3304 124.257 45.1144C124.257 43.877 124.001 42.789 123.489 41.8504C122.999 40.9117 122.316 40.1757 121.441 39.6424C120.588 39.109 119.617 38.8424 118.529 38.8424C117.441 38.8424 116.46 39.109 115.585 39.6424C115.313 39.8124 115.059 40.003 114.821 40.2142ZM114.821 40.2142C114.222 41.2874 113.601 42.3391 112.961 43.371C113.089 42.8267 113.281 42.3199 113.537 41.8504C113.886 41.2109 114.314 40.6655 114.821 40.2142ZM62.0205 31.2904C61.7431 31.0557 61.4338 30.9384 61.0925 30.9384C60.8151 30.9384 60.5591 31.013 60.3245 31.1624C60.0898 31.3117 59.9298 31.5144 59.8445 31.7704L54.0979 48.7937L49.2205 36.5384C49.1351 36.2824 48.9751 36.0797 48.7405 35.9304C48.5271 35.781 48.2925 35.7064 48.0365 35.7064C47.7591 35.7064 47.5138 35.781 47.3005 35.9304C47.0871 36.0797 46.9271 36.2824 46.8205 36.5384L41.8483 48.8316L36.0685 31.7704C35.9831 31.5144 35.8231 31.3117 35.5885 31.1624C35.3538 31.013 35.1085 30.9384 34.8525 30.9384C34.5325 30.9384 34.2125 31.0664 33.8925 31.3224C33.5938 31.557 33.4445 31.8877 33.4445 32.3144C33.4445 32.4424 33.4658 32.5917 33.5085 32.7624L40.3245 52.6024C40.4098 52.8584 40.5591 53.061 40.7725 53.2104C41.0071 53.3384 41.2418 53.413 41.4765 53.4344C41.7325 53.4344 41.9778 53.3704 42.2125 53.2424C42.4471 53.093 42.6285 52.8797 42.7565 52.6024L47.9602 40.0318L53.1565 52.6024C53.2845 52.8797 53.4658 53.093 53.7005 53.2424C53.9351 53.3704 54.1805 53.4344 54.4365 53.4344C54.6711 53.413 54.8951 53.3384 55.1085 53.2104C55.3431 53.061 55.5031 52.8584 55.5885 52.6024L62.4045 32.7624C62.4471 32.5917 62.4685 32.4317 62.4685 32.2824C62.4685 31.8557 62.3191 31.525 62.0205 31.2904ZM76.996 37.5624C76.1853 36.9437 75.076 36.6344 73.668 36.6344C72.9213 36.6344 72.2066 36.773 71.524 37.0504C70.8413 37.3064 70.2226 37.6584 69.668 38.1064C69.1133 38.5544 68.6546 39.0664 68.292 39.6424C68.2702 39.6757 68.2488 39.709 68.228 39.7424V31.0344C68.228 30.6717 68.1106 30.373 67.876 30.1384C67.6413 29.8824 67.332 29.7544 66.948 29.7544C66.5853 29.7544 66.276 29.8824 66.02 30.1384C65.7853 30.373 65.668 30.6717 65.668 31.0344V52.1224C65.668 52.485 65.7853 52.7944 66.02 53.0504C66.276 53.3064 66.5853 53.4344 66.948 53.4344C67.3106 53.4344 67.6093 53.3064 67.844 53.0504C68.1 52.7944 68.228 52.485 68.228 52.1224V43.3544C68.228 42.5437 68.4413 41.8184 68.868 41.1784C69.2946 40.517 69.8706 39.9944 70.596 39.6104C71.3213 39.205 72.1213 39.0024 72.996 39.0024C73.9346 39.0024 74.6706 39.205 75.204 39.6104C75.7586 39.9944 76.1533 40.517 76.388 41.1784C76.6226 41.8184 76.74 42.5437 76.74 43.3544V52.1224C76.74 52.485 76.8573 52.7944 77.092 53.0504C77.348 53.3064 77.6573 53.4344 78.02 53.4344C78.3826 53.4344 78.6813 53.3064 78.916 53.0504C79.172 52.7944 79.3 52.485 79.3 52.1224V43.3544C79.3 42.117 79.1186 40.997 78.756 39.9944C78.4146 38.9704 77.828 38.1597 76.996 37.5624ZM97.1667 37.0184C96.932 36.7624 96.6334 36.6344 96.2707 36.6344C95.8867 36.6344 95.5774 36.7624 95.3427 37.0184C95.108 37.253 94.9907 37.5517 94.9907 37.9144V47.0024C94.9907 47.813 94.7774 48.5597 94.3507 49.2424C93.9454 49.9037 93.3907 50.4264 92.6867 50.8104C92.004 51.1944 91.236 51.3864 90.3827 51.3864C89.0387 51.3864 88.0467 51.0237 87.4067 50.2984C86.7667 49.5517 86.4467 48.453 86.4467 47.0024V37.9144C86.4467 37.5517 86.3294 37.253 86.0947 37.0184C85.86 36.7624 85.5507 36.6344 85.1667 36.6344C84.804 36.6344 84.4947 36.7624 84.2387 37.0184C84.004 37.253 83.8867 37.5517 83.8867 37.9144V47.5784C83.8867 48.7944 84.1 49.8717 84.5267 50.8104C84.9747 51.7277 85.6147 52.453 86.4467 52.9864C87.3 53.4984 88.3347 53.7544 89.5507 53.7544C90.4467 53.7544 91.268 53.6157 92.0147 53.3384C92.7614 53.061 93.4227 52.677 93.9987 52.1864C94.3811 51.8606 94.7117 51.4973 94.9907 51.0964V51.9304C94.9907 53.1464 94.7774 54.1597 94.3507 54.9704C93.924 55.8024 93.316 56.4317 92.5267 56.8584C91.7374 57.285 90.788 57.4984 89.6787 57.4984C88.868 57.4984 88.132 57.3597 87.4707 57.0824C86.8307 56.8264 86.34 56.6237 85.9987 56.4744C85.6787 56.325 85.3694 56.325 85.0707 56.4744C84.7934 56.6237 84.58 56.8904 84.4307 57.2744C84.324 57.5944 84.3454 57.893 84.4947 58.1704C84.6654 58.469 84.9534 58.7144 85.3587 58.9064C85.8494 59.1837 86.4787 59.4077 87.2467 59.5784C88.0147 59.749 88.8147 59.8344 89.6467 59.8344C91.14 59.8344 92.4734 59.5464 93.6467 58.9704C94.8414 58.3944 95.7907 57.509 96.4947 56.3144C97.1987 55.141 97.5507 53.6584 97.5507 51.8664V37.9144C97.5507 37.5517 97.4227 37.253 97.1667 37.0184ZM143.98 37.2744C143.745 37.0184 143.436 36.8904 143.052 36.8904C142.689 36.8904 142.38 37.0184 142.124 37.2744C141.889 37.509 141.772 37.8077 141.772 38.1704V46.9064C141.772 48.357 141.399 49.4557 140.652 50.2024C139.927 50.949 138.871 51.3224 137.484 51.3224C136.14 51.3224 135.095 50.949 134.348 50.2024C133.601 49.4557 133.228 48.357 133.228 46.9064V38.1704C133.228 37.8077 133.111 37.509 132.876 37.2744C132.641 37.0184 132.332 36.8904 131.948 36.8904C131.585 36.8904 131.276 37.0184 131.02 37.2744C130.785 37.509 130.668 37.8077 130.668 38.1704V46.9064C130.668 49.061 131.265 50.7357 132.46 51.9304C133.676 53.1037 135.351 53.6904 137.484 53.6904C139.639 53.6904 141.313 53.1037 142.508 51.9304C143.724 50.7357 144.332 49.061 144.332 46.9064V38.1704C144.332 37.8077 144.215 37.509 143.98 37.2744ZM149.426 53.0504C149.682 53.3064 149.992 53.4344 150.354 53.4344C150.717 53.4344 151.016 53.3064 151.25 53.0504C151.506 52.7944 151.634 52.485 151.634 52.1224V44.3464C151.634 43.5784 151.762 42.8637 152.018 42.2024C152.296 41.5197 152.648 40.9117 153.074 40.3784C153.522 39.845 154.002 39.4397 154.514 39.1624C155.048 38.8637 155.581 38.7144 156.114 38.7144C156.498 38.7144 156.818 38.7784 157.074 38.9064C157.33 39.013 157.597 39.0664 157.874 39.0664C158.173 39.0664 158.44 38.9597 158.674 38.7464C158.909 38.533 159.026 38.2024 159.026 37.7544C159.026 37.349 158.824 37.0397 158.418 36.8264C158.034 36.5917 157.608 36.4744 157.138 36.4744C156.349 36.4744 155.624 36.6237 154.962 36.9224C154.301 37.1997 153.714 37.5944 153.202 38.1064C152.69 38.597 152.264 39.1624 151.922 39.8024C151.816 40.0086 151.72 40.2172 151.634 40.4282V38.1704C151.634 37.8077 151.517 37.509 151.282 37.2744C151.048 37.0184 150.738 36.8904 150.354 36.8904C149.992 36.8904 149.682 37.0184 149.426 37.2744C149.192 37.509 149.074 37.8077 149.074 38.1704V52.1224C149.074 52.485 149.192 52.7944 149.426 53.0504ZM169.546 49.9464C169.525 50.245 169.61 50.533 169.802 50.8104C170.634 51.877 171.616 52.6344 172.746 53.0824C173.898 53.5304 175.061 53.7544 176.234 53.7544C177.28 53.7544 178.25 53.573 179.146 53.2104C180.064 52.8264 180.8 52.2824 181.354 51.5784C181.909 50.853 182.186 49.9997 182.186 49.0184C182.186 48.165 182.037 47.461 181.738 46.9064C181.44 46.3304 181.034 45.861 180.522 45.4984C180.01 45.1357 179.434 44.8477 178.794 44.6344C178.176 44.3997 177.525 44.197 176.842 44.0264C176.096 43.813 175.413 43.5997 174.794 43.3864C174.176 43.1517 173.685 42.853 173.322 42.4904C172.96 42.1277 172.768 41.6584 172.746 41.0824C172.746 40.4637 172.906 39.9837 173.226 39.6424C173.568 39.2797 173.984 39.0237 174.474 38.8744C174.965 38.725 175.466 38.6504 175.978 38.6504C176.789 38.6504 177.525 38.7997 178.186 39.0984C178.869 39.3757 179.434 39.781 179.882 40.3144C180.074 40.5064 180.309 40.613 180.586 40.6344C180.885 40.6557 181.152 40.581 181.386 40.4104C181.685 40.1544 181.824 39.8664 181.802 39.5464C181.781 39.2264 181.674 38.9597 181.482 38.7464C181.013 38.1704 180.469 37.7224 179.85 37.4024C179.232 37.061 178.592 36.8264 177.93 36.6984C177.29 36.549 176.672 36.4744 176.074 36.4744C175.029 36.4744 174.058 36.6664 173.162 37.0504C172.288 37.4344 171.584 37.9784 171.05 38.6824C170.538 39.3864 170.282 40.2184 170.282 41.1784C170.282 41.989 170.442 42.6824 170.762 43.2584C171.104 43.813 171.541 44.2824 172.074 44.6664C172.629 45.029 173.248 45.3384 173.93 45.5944C174.613 45.829 175.306 46.0424 176.01 46.2344C176.693 46.405 177.322 46.6077 177.898 46.8424C178.474 47.0557 178.944 47.3437 179.306 47.7064C179.669 48.0477 179.85 48.517 179.85 49.1144C179.85 49.733 179.669 50.2344 179.306 50.6184C178.965 50.981 178.538 51.237 178.026 51.3864C177.514 51.5357 177.002 51.621 176.49 51.6424C175.381 51.6424 174.442 51.4397 173.674 51.0344C172.906 50.6077 172.224 50.0424 171.626 49.3384C171.392 49.0824 171.125 48.9437 170.826 48.9224C170.549 48.901 170.304 48.965 170.09 49.1144C169.749 49.349 169.568 49.6264 169.546 49.9464ZM189.055 52.6664C190.335 53.3917 191.828 53.7544 193.535 53.7544C194.687 53.7544 195.775 53.509 196.799 53.0184C197.823 52.5064 198.633 51.9197 199.231 51.2584C199.572 50.981 199.743 50.661 199.743 50.2984C199.743 49.9997 199.636 49.7437 199.423 49.5304C199.231 49.317 198.975 49.2104 198.655 49.2104C198.399 49.2104 198.132 49.3064 197.855 49.4984C197.577 49.797 197.236 50.0957 196.831 50.3944C196.425 50.6717 195.945 50.9064 195.391 51.0984C194.836 51.2904 194.185 51.3864 193.439 51.3864C192.244 51.3864 191.199 51.1197 190.303 50.5864C189.407 50.0317 188.703 49.285 188.191 48.3464C187.765 47.531 187.523 46.603 187.467 45.5624H199.103C199.444 45.5624 199.743 45.445 199.999 45.2104C200.255 44.9757 200.383 44.6877 200.383 44.3464C200.361 43.1517 200.137 42.0744 199.711 41.1144C199.284 40.133 198.719 39.301 198.015 38.6184C197.311 37.9144 196.5 37.381 195.583 37.0184C194.665 36.6557 193.716 36.4744 192.735 36.4744C191.412 36.4744 190.153 36.8264 188.959 37.5304C187.785 38.213 186.825 39.2157 186.079 40.5384C185.353 41.8397 184.991 43.4184 184.991 45.2744C184.991 46.9384 185.343 48.4104 186.047 49.6904C186.772 50.949 187.775 51.941 189.055 52.6664ZM187.598 43.3544C187.671 42.9508 187.773 42.5775 187.903 42.2344C188.223 41.445 188.628 40.805 189.119 40.3144C189.631 39.8024 190.196 39.4397 190.815 39.2264C191.455 38.9917 192.095 38.8744 192.735 38.8744C193.524 38.8744 194.271 39.045 194.975 39.3864C195.7 39.7277 196.308 40.2184 196.799 40.8584C197.311 41.477 197.609 42.2237 197.695 43.0984V43.3544H187.598ZM204.582 53.0504C204.838 53.3064 205.148 53.4344 205.51 53.4344C205.873 53.4344 206.172 53.3064 206.406 53.0504C206.662 52.7944 206.79 52.485 206.79 52.1224V44.3464C206.79 43.5784 206.918 42.8637 207.174 42.2024C207.452 41.5197 207.804 40.9117 208.23 40.3784C208.678 39.845 209.158 39.4397 209.67 39.1624C210.204 38.8637 210.737 38.7144 211.27 38.7144C211.654 38.7144 211.974 38.7784 212.23 38.9064C212.486 39.013 212.753 39.0664 213.03 39.0664C213.329 39.0664 213.596 38.9597 213.83 38.7464C214.065 38.533 214.182 38.2024 214.182 37.7544C214.182 37.349 213.98 37.0397 213.574 36.8264C213.19 36.5917 212.764 36.4744 212.294 36.4744C211.505 36.4744 210.78 36.6237 210.118 36.9224C209.457 37.1997 208.87 37.5944 208.358 38.1064C207.846 38.597 207.42 39.1624 207.078 39.8024C206.972 40.0086 206.876 40.2172 206.79 40.4282V38.1704C206.79 37.8077 206.673 37.509 206.438 37.2744C206.204 37.0184 205.894 36.8904 205.51 36.8904C205.148 36.8904 204.838 37.0184 204.582 37.2744C204.348 37.509 204.23 37.8077 204.23 38.1704V52.1224C204.23 52.485 204.348 52.7944 204.582 53.0504ZM219.404 36.8264C219.169 36.677 218.924 36.6024 218.668 36.6024C218.263 36.6024 217.943 36.7304 217.708 36.9864C217.495 37.221 217.388 37.477 217.388 37.7544C217.388 37.9037 217.399 38.0317 217.42 38.1384C217.463 38.245 217.505 38.341 217.548 38.4264L223.724 52.6024C223.831 52.901 224.001 53.125 224.236 53.2744C224.492 53.4024 224.759 53.4557 225.036 53.4344C225.548 53.413 225.921 53.1357 226.156 52.6024L232.332 38.3944C232.375 38.309 232.407 38.213 232.428 38.1064C232.471 37.9784 232.492 37.8504 232.492 37.7224C232.492 37.4024 232.375 37.1357 232.14 36.9224C231.905 36.709 231.628 36.6024 231.308 36.6024C230.753 36.581 230.359 36.8584 230.124 37.4344L225.026 49.409L219.916 37.4024C219.809 37.1464 219.639 36.9544 219.404 36.8264ZM238.029 53.0504C238.285 52.7944 238.413 52.485 238.413 52.1224V37.9144C238.413 37.5517 238.285 37.253 238.029 37.0184C237.795 36.7624 237.496 36.6344 237.133 36.6344C236.771 36.6344 236.461 36.7624 236.205 37.0184C235.971 37.253 235.853 37.5517 235.853 37.9144V52.1224C235.853 52.485 235.971 52.7944 236.205 53.0504C236.44 53.3064 236.749 53.4344 237.133 53.4344C237.496 53.4344 237.795 53.3064 238.029 53.0504ZM235.949 34.1704C236.205 34.3837 236.6 34.4904 237.133 34.4904C237.645 34.4904 238.029 34.3837 238.285 34.1704C238.563 33.957 238.701 33.6264 238.701 33.1784V32.7304C238.701 32.2824 238.573 31.9517 238.317 31.7384C238.061 31.525 237.677 31.4184 237.165 31.4184C236.653 31.4184 236.259 31.525 235.981 31.7384C235.704 31.9517 235.565 32.2824 235.565 32.7304V33.1784C235.565 33.6264 235.693 33.957 235.949 34.1704ZM253.316 36.8264C252.441 36.5917 251.46 36.4744 250.372 36.4744C248.729 36.4744 247.289 36.8584 246.052 37.6264C244.814 38.3944 243.844 39.429 243.14 40.7304C242.457 42.0317 242.116 43.493 242.116 45.1144C242.116 46.7357 242.446 48.2077 243.108 49.5304C243.79 50.8317 244.74 51.8664 245.956 52.6344C247.172 53.381 248.59 53.7544 250.212 53.7544C251.364 53.7544 252.388 53.605 253.284 53.3064C254.201 53.0077 254.926 52.645 255.46 52.2184C255.993 51.7917 256.26 51.3864 256.26 51.0024C256.26 50.661 256.153 50.373 255.94 50.1384C255.748 49.9037 255.47 49.7864 255.108 49.7864C254.766 49.7864 254.489 49.893 254.276 50.1064C254.084 50.3197 253.796 50.533 253.412 50.7464C253.113 50.917 252.74 51.0664 252.292 51.1944C251.844 51.3224 251.246 51.3864 250.5 51.3864C249.348 51.3864 248.334 51.109 247.46 50.5544C246.585 49.9997 245.902 49.253 245.412 48.3144C244.921 47.3757 244.676 46.309 244.676 45.1144C244.676 43.9197 244.932 42.853 245.444 41.9144C245.956 40.9757 246.649 40.229 247.524 39.6744C248.42 39.1197 249.454 38.8424 250.628 38.8424C251.118 38.8424 251.609 38.885 252.1 38.9704C252.59 39.0557 252.964 39.173 253.22 39.3224C253.497 39.4504 253.71 39.5997 253.86 39.7704C254.03 39.941 254.201 40.0797 254.372 40.1864C254.564 40.293 254.809 40.3464 255.108 40.3464C255.428 40.3464 255.684 40.2184 255.876 39.9624C256.068 39.7064 256.164 39.4397 256.164 39.1624C256.164 38.6504 255.908 38.1917 255.396 37.7864C254.884 37.381 254.19 37.061 253.316 36.8264ZM262.773 52.6664C264.053 53.3917 265.547 53.7544 267.253 53.7544C268.405 53.7544 269.493 53.509 270.517 53.0184C271.541 52.5064 272.352 51.9197 272.949 51.2584C273.291 50.981 273.461 50.661 273.461 50.2984C273.461 49.9997 273.355 49.7437 273.141 49.5304C272.949 49.317 272.693 49.2104 272.373 49.2104C272.117 49.2104 271.851 49.3064 271.573 49.4984C271.296 49.797 270.955 50.0957 270.549 50.3944C270.144 50.6717 269.664 50.9064 269.109 51.0984C268.555 51.2904 267.904 51.3864 267.157 51.3864C265.963 51.3864 264.917 51.1197 264.021 50.5864C263.125 50.0317 262.421 49.285 261.909 48.3464C261.483 47.531 261.242 46.603 261.186 45.5624H272.821C273.163 45.5624 273.461 45.445 273.717 45.2104C273.973 44.9757 274.101 44.6877 274.101 44.3464C274.08 43.1517 273.856 42.0744 273.429 41.1144C273.003 40.133 272.437 39.301 271.733 38.6184C271.029 37.9144 270.219 37.381 269.301 37.0184C268.384 36.6557 267.435 36.4744 266.453 36.4744C265.131 36.4744 263.872 36.8264 262.677 37.5304C261.504 38.213 260.544 39.2157 259.797 40.5384C259.072 41.8397 258.709 43.4184 258.709 45.2744C258.709 46.9384 259.061 48.4104 259.765 49.6904C260.491 50.949 261.493 51.941 262.773 52.6664ZM261.317 43.3544C261.39 42.9508 261.492 42.5775 261.621 42.2344C261.941 41.445 262.347 40.805 262.837 40.3144C263.349 39.8024 263.915 39.4397 264.533 39.2264C265.173 38.9917 265.813 38.8744 266.453 38.8744C267.243 38.8744 267.989 39.045 268.693 39.3864C269.419 39.7277 270.027 40.2184 270.517 40.8584C271.029 41.477 271.328 42.2237 271.413 43.0984V43.3544H261.317ZM290.698 41.9784C290.463 42.213 290.346 42.5117 290.346 42.8744V46.2344C290.346 46.597 290.463 46.9064 290.698 47.1624C290.932 47.4184 291.242 47.5464 291.626 47.5464C291.988 47.5464 292.287 47.4184 292.522 47.1624C292.756 46.9064 292.874 46.597 292.874 46.2344V43.6864C293.718 43.5889 294.508 43.3716 295.242 43.0344C296.031 42.6717 296.724 42.1917 297.322 41.5944C297.919 40.9757 298.378 40.2717 298.698 39.4824C299.039 38.693 299.21 37.829 299.21 36.8904C299.21 35.4824 298.89 34.2557 298.25 33.2104C297.61 32.1437 296.756 31.3117 295.69 30.7144C294.623 30.117 293.439 29.8184 292.138 29.8184C290.964 29.8184 289.855 30.0744 288.81 30.5864C287.764 31.077 286.89 31.749 286.186 32.6024C285.908 32.901 285.78 33.2317 285.802 33.5944C285.844 33.9357 286.047 34.2344 286.41 34.4904C286.73 34.7037 287.039 34.7677 287.338 34.6824C287.658 34.597 287.935 34.437 288.17 34.2024C288.66 33.6477 289.247 33.1997 289.93 32.8584C290.612 32.517 291.348 32.3464 292.138 32.3464C292.97 32.3464 293.716 32.5384 294.378 32.9224C295.06 33.3064 295.594 33.8397 295.978 34.5224C296.383 35.205 296.586 35.9944 296.586 36.8904C296.586 37.8504 296.362 38.6824 295.914 39.3864C295.487 40.069 294.9 40.6024 294.154 40.9864C293.407 41.349 292.564 41.5517 291.626 41.5944C291.263 41.5944 290.954 41.7224 290.698 41.9784ZM290.538 53.0504C290.772 53.3064 291.114 53.4344 291.562 53.4344H291.85C292.298 53.4344 292.639 53.3064 292.874 53.0504C293.108 52.773 293.226 52.4104 293.226 51.9624V51.3224C293.226 50.8744 293.108 50.5224 292.874 50.2664C292.639 50.0104 292.298 49.8824 291.85 49.8824H291.562C291.114 49.8824 290.772 50.0104 290.538 50.2664C290.303 50.5224 290.186 50.8744 290.186 51.3224V51.9624C290.186 52.4104 290.303 52.773 290.538 53.0504Z" fill="#051A4A"/>
</svg>
